<svg width="147" height="100" viewBox="0 0 147 100" fill="none" xmlns="http://www.w3.org/2000/svg">
<g clip-path="url(#clip0_1327_37)">
<path d="M24.7983 31.8531C24.9402 32.0533 25.0801 32.2535 25.218 32.4562L25.22 32.4587C27.1188 35.2168 28.8404 38.1632 30.3683 41.2698C30.4882 41.5105 30.6062 41.7538 30.7222 41.9971C34.3259 49.5143 36.7993 57.8134 38.017 66.4739C38.019 66.4891 38.0209 66.5018 38.023 66.517C38.2947 68.4606 38.4999 70.417 38.6385 72.386C38.7484 73.914 38.8164 75.4463 38.8424 76.9828C38.9543 83.4143 38.5486 90.5808 41.8483 95.4665C43.0873 97.3012 44.7362 98.5834 46.5389 99.3918C47.0819 99.6347 47.6358 99.8361 48.1978 99.9949H57.0155C57.1354 99.9747 57.2554 99.9519 57.3772 99.929C58.1187 99.7897 58.8582 99.6351 59.5976 99.4805L59.6397 99.4729L59.7456 99.516L60.3892 99.7821C60.3892 99.7567 60.3911 99.7314 60.3911 99.706C60.3932 99.6604 60.3951 99.6123 60.3951 99.5667C60.3971 99.5084 60.3991 99.4501 60.4012 99.3918C60.4031 99.3335 60.4051 99.2778 60.4051 99.2195C60.4091 99.1232 60.4131 99.0244 60.4131 98.9255C60.8408 83.8679 59.6256 68.2909 53.9377 55.0806C52.0081 50.6106 49.5364 46.5529 46.6129 43.0563C40.797 36.1104 33.2943 31.5997 25.4059 31.8278C25.204 31.8328 25.0022 31.8404 24.7983 31.8531Z" fill="#F0F0F0"/>
<path d="M24.7758 32.173C33.6268 37.8164 41.1132 47.0817 45.6338 58.2804C46.6111 60.7015 47.4364 63.2654 47.7748 65.9646C48.1134 68.6649 47.8164 71.2219 47.0563 73.7629C46.3615 76.086 45.4385 78.3602 45.2012 80.857C44.951 83.4887 45.6824 85.9705 47.0329 87.9571C48.6852 90.3878 50.9279 91.9207 53.1621 93.3231C55.6427 94.8802 58.2387 96.4478 59.972 99.2905C60.182 99.6349 60.5913 99.2016 60.3816 98.8576C57.3659 93.9119 52.1027 92.8793 48.4978 88.8694C46.8156 86.9984 45.568 84.4732 45.6888 81.5491C45.7944 78.9921 46.7445 76.6459 47.4641 74.3015C48.2197 71.8398 48.6136 69.3566 48.3907 66.7095C48.1628 64.0017 47.4148 61.3915 46.4906 58.9493C44.3622 53.4312 41.5628 48.3716 38.1948 43.9561C34.3731 38.8896 29.8959 34.6894 24.9571 31.5372C24.6514 31.3423 24.472 31.9793 24.7758 32.173Z" fill="white"/>
<path d="M44.3159 54.542C45.7014 53.3034 46.6946 51.4807 47.1181 49.3994C47.5416 47.318 47.3678 45.1135 46.6278 43.1797C46.477 42.789 45.9911 43.0678 46.1421 43.459C46.8339 45.2582 46.9956 47.3117 46.5981 49.2488C46.2006 51.1859 45.2701 52.8791 43.9745 54.0227C43.6932 54.2717 44.0362 54.7895 44.3159 54.542Z" fill="white"/>
<path d="M47.531 72.6439C44.1111 71.9336 41.028 69.615 38.8965 66.1504C38.6855 65.8069 38.2762 66.2402 38.4869 66.5832C40.7104 70.1833 43.9227 72.5878 47.4828 73.3171C47.8221 73.3863 47.8685 72.7127 47.531 72.6439Z" fill="white"/>
<path d="M34.0985 39.7155C33.6411 40.3364 33.0693 40.8035 32.4344 41.075C31.7995 41.3464 31.1213 41.4136 30.4609 41.2706C30.1224 41.196 30.0763 41.8697 30.4126 41.9438C31.1429 42.0975 31.8918 42.0221 32.5938 41.7242C33.2958 41.4263 33.9296 40.9149 34.4398 40.2348C34.4921 40.1758 34.5248 40.0938 34.5311 40.0054C34.5374 39.9169 34.517 39.8288 34.4739 39.7588C34.4284 39.6903 34.3635 39.6474 34.2932 39.6393C34.2229 39.6312 34.1529 39.6586 34.0985 39.7155Z" fill="white"/>
<path d="M0.209614 73.3844C0.419529 73.4376 0.62534 73.4883 0.835247 73.5491C0.8372 73.5491 0.841198 73.5516 0.843239 73.5516C3.66677 74.2992 6.43789 75.3357 9.12938 76.6508L9.13134 76.6534C9.34115 76.7496 9.55301 76.8535 9.75892 76.9574H9.76087C16.2035 80.21 22.1157 84.9466 27.1985 90.9279C27.2086 90.9406 27.2186 90.9507 27.2285 90.9634C27.2306 90.9684 27.2346 90.971 27.2365 90.9735C27.2425 90.9811 27.2505 90.9887 27.2565 90.9963C29.2721 93.382 31.1428 95.9572 32.8525 98.7C32.9944 98.928 33.1363 99.1586 33.2782 99.3918C33.4022 99.592 33.524 99.7922 33.648 99.9949H60.6289C60.585 99.9138 60.535 99.8302 60.491 99.7491C60.491 99.7466 60.4891 99.7466 60.4891 99.744C60.4571 99.6857 60.425 99.63 60.3991 99.5742C60.397 99.5717 60.3951 99.5692 60.3951 99.5666C60.3851 99.5514 60.3751 99.5337 60.3671 99.5236C60.3451 99.4754 60.3192 99.4349 60.2992 99.3918C60.2946 99.3856 60.2905 99.3788 60.2872 99.3715C59.8095 98.52 59.3298 97.6686 58.8382 96.8222V96.8197C58.835 96.8161 58.8322 96.8118 58.8302 96.807C58.8282 96.8019 58.8282 96.8019 58.8242 96.7994C55.0689 90.3172 50.8558 84.1771 46.0392 79.043C45.8954 78.8884 45.7495 78.7288 45.5956 78.5792C43.4152 76.2801 41.0904 74.2105 38.6445 72.391C38.6425 72.3885 38.6405 72.3884 38.6385 72.3859C37.3015 71.4027 35.9244 70.5014 34.5074 69.682C30.8499 67.5898 26.9558 66.2396 22.9676 65.6807C22.9536 65.6782 22.9416 65.6782 22.9276 65.6756C22.9176 65.6731 22.9076 65.6731 22.8976 65.6706C14.9692 64.5809 6.85492 66.7121 0.679302 72.9029C0.521404 73.0625 0.367512 73.2196 0.209614 73.3844Z" fill="#F0F0F0"/>
<path d="M55.5626 99.3918C54.5673 99.5337 53.572 99.7618 52.5748 99.9949H56.2122C56.5999 99.9544 56.9877 99.929 57.3773 99.929C57.793 99.9206 58.2088 99.9426 58.6225 99.9949H60.6291C60.6291 99.9974 60.6311 99.9974 60.6311 100V99.9949C60.626 99.9423 60.6105 99.8922 60.586 99.8492C60.5615 99.8063 60.5289 99.7718 60.4912 99.7491C60.4742 99.7368 60.4561 99.7274 60.4372 99.7212C60.4212 99.7161 60.4072 99.7111 60.3912 99.706C60.1754 99.6325 59.9615 99.5692 59.7457 99.5159C59.6957 99.5033 59.6477 99.4906 59.5977 99.4805C59.4539 99.445 59.3099 99.4171 59.1681 99.3918C57.9711 99.1979 56.7596 99.1979 55.5626 99.3918Z" fill="white"/>
<path d="M0.343758 73.658C0.507607 73.62 0.671448 73.5845 0.835403 73.5491C4.30558 72.7993 7.83059 72.5392 11.3459 72.7736C11.5238 72.7838 11.7017 72.7964 11.8795 72.8116C16.7575 73.1897 21.5599 74.5241 26.1155 76.7674C26.1165 76.7688 26.118 76.7697 26.1195 76.7699C26.1691 76.7911 26.2178 76.8156 26.2654 76.8434H26.2674C27.3267 77.3705 28.3692 77.9491 29.3952 78.5792C31.3238 79.7677 33.2005 81.1843 34.7534 83.0823C36.0281 84.6494 36.9965 86.5723 37.5814 88.6979C37.6434 88.9082 37.7014 89.1236 37.7573 89.339C37.7992 89.5113 37.8412 89.6837 37.8812 89.856C38.4308 92.2406 38.7726 94.762 39.7698 96.9362C40.204 97.8855 40.7788 98.7193 41.4627 99.3918C41.6847 99.6092 41.9163 99.8106 42.1562 99.9949H43.3413C43.015 99.8235 42.699 99.6219 42.396 99.3918C41.6353 98.8208 40.9835 98.0438 40.4874 97.1162C39.3582 94.9951 39.0024 92.3951 38.4627 89.9751C38.3708 89.5646 38.2729 89.1642 38.1629 88.7689C37.6324 86.7032 36.758 84.8063 35.5988 83.2065C34.1298 81.2172 32.2932 79.7044 30.3964 78.4602C29.1773 77.6619 27.9222 76.9397 26.6411 76.2935C26.4753 76.2099 26.3094 76.1262 26.1415 76.0451C18.0271 72.1368 9.23592 71.0518 0.67947 72.9029C0.513573 72.9358 0.349724 72.9738 0.185875 73.0118C-0.149948 73.0904 0.00990295 73.7341 0.343758 73.658Z" fill="white"/>
<path d="M26.5667 76.6015C27.0848 74.5548 27.0123 72.3412 26.3622 70.3561C25.712 68.371 24.5265 66.7435 23.0173 65.7644C22.7114 65.5676 22.4558 66.1611 22.7621 66.3581C24.1688 67.2666 25.273 68.7827 25.8755 70.6328C26.4779 72.483 26.539 74.5452 26.0476 76.4474C25.9411 76.8609 26.4609 77.0126 26.5667 76.6015Z" fill="white"/>
<path d="M37.7293 88.6004C34.6614 90.644 31.0988 91.1463 27.7518 90.0073C27.4202 89.8941 27.2991 90.5524 27.6303 90.6655C31.115 91.8425 34.8217 91.3102 38.0105 89.1748C38.3143 88.9709 38.0315 88.3977 37.7293 88.6004Z" fill="white"/>
<path d="M11.3686 72.5632C11.2982 73.4081 11.0635 74.2175 10.6854 74.9189C10.3074 75.6203 9.79784 76.1917 9.20259 76.5817C8.89687 76.7805 9.18002 77.3536 9.48375 77.156C10.1398 76.7213 10.7019 76.0894 11.121 75.3156C11.54 74.5419 11.8033 73.6497 11.8877 72.7172C11.9015 72.6302 11.8886 72.5397 11.8516 72.4643C11.8147 72.3889 11.7565 72.3341 11.6889 72.3111C11.6201 72.2911 11.5478 72.3064 11.4878 72.3536C11.4279 72.4008 11.385 72.4762 11.3686 72.5632Z" fill="white"/>
<path d="M55.2556 50.7738C55.3593 50.7738 55.4629 50.7668 55.566 50.7528L78.5459 47.6416C78.7286 47.6169 78.9056 47.5468 79.067 47.4353C79.2283 47.3238 79.3707 47.1731 79.4861 46.9918C79.6015 46.8106 79.6876 46.6022 79.7395 46.3788C79.7913 46.1553 79.808 45.921 79.7885 45.6894L79.4647 41.8443L79.4612 41.8448C79.3982 41.4036 79.206 41.0089 78.923 40.74C78.6401 40.4711 78.2874 40.3478 77.9357 40.3949L54.9558 43.5061C54.2247 43.6052 53.5514 44.0559 53.0743 44.7653C52.5973 45.4747 52.3528 46.389 52.3912 47.32C52.4296 48.251 52.748 49.1279 53.2808 49.7704C53.8136 50.4128 54.5203 50.7719 55.2556 50.7738Z" fill="#1278FB"/>
<path d="M52.4136 99.6653H55.3634C55.7344 99.6648 56.09 99.4778 56.3522 99.1452C56.6145 98.8127 56.762 98.3618 56.7625 97.8915V66.7185C56.762 66.2482 56.6145 65.7973 56.3522 65.4648C56.09 65.1322 55.7344 64.9452 55.3634 64.9446H52.4136C52.0427 64.9452 51.6871 65.1322 51.4248 65.4648C51.1625 65.7973 51.015 66.2482 51.0146 66.7185V97.8915C51.015 98.3618 51.1625 98.8127 51.4248 99.1452C51.6871 99.4778 52.0427 99.6648 52.4136 99.6653Z" fill="#1278FB"/>
<path d="M59.447 99.6653H62.3969C62.7678 99.6648 63.1234 99.4778 63.3857 99.1452C63.648 98.8127 63.7955 98.3618 63.7959 97.8915V66.7185C63.7955 66.2482 63.648 65.7973 63.3857 65.4648C63.1234 65.1322 62.7678 64.9452 62.3969 64.9446H59.447C59.0761 64.9452 58.7205 65.1322 58.4582 65.4648C58.1959 65.7973 58.0484 66.2482 58.048 66.7185V97.8915C58.0484 98.3618 58.1959 98.8127 58.4582 99.1452C58.7205 99.4778 59.0761 99.6648 59.447 99.6653Z" fill="#1278FB"/>
<path d="M54.7008 32.539C49.0714 32.539 44.508 26.7527 44.508 19.6151C44.508 12.4774 49.0714 6.69119 54.7008 6.69119C60.3301 6.69119 64.8936 12.4774 64.8936 19.6151C64.8936 26.7527 60.3301 32.539 54.7008 32.539Z" fill="#1278FB"/>
<path d="M60.3041 25.0403C60.9649 25.0171 61.7872 24.988 62.4207 24.4012C62.6093 24.2193 62.7643 23.9873 62.8748 23.7215C62.9852 23.4557 63.0485 23.1624 63.0602 22.8623C63.0717 22.649 63.0441 22.4353 62.9796 22.2378C62.9151 22.0402 62.8154 21.8643 62.6884 21.7237C62.3575 21.3692 61.8744 21.2861 61.3537 21.4801L61.8932 16.4814L61.4972 16.4126L60.863 22.2892L61.1937 22.0968C61.5771 21.8738 62.1033 21.7603 62.4304 22.1108C62.5107 22.2024 62.5733 22.3162 62.6132 22.4435C62.6532 22.5707 62.6694 22.708 62.6608 22.8445C62.6511 23.0679 62.6035 23.286 62.5214 23.484C62.4393 23.682 62.3245 23.8552 62.1849 23.9919C61.6919 24.4485 61.0364 24.5074 60.293 24.5337L60.3041 25.0403Z" fill="#001344"/>
<path d="M63.8516 16.9125H66.0044V17.4194H63.8516V16.9125Z" fill="#001344"/>
<path d="M57.0564 16.9125H59.2092V17.4194H57.0564V16.9125Z" fill="#001344"/>
<path d="M77.9309 68.306H143.804C144.609 68.3049 145.382 67.8987 145.951 67.1765C146.521 66.4544 146.841 65.4753 146.842 64.454V23.7568C146.841 22.7356 146.521 21.7564 145.951 21.0343C145.382 20.3122 144.609 19.906 143.804 19.9048H77.9309C77.1255 19.906 76.3533 20.3122 75.7837 21.0343C75.2142 21.7564 74.8938 22.7355 74.8929 23.7568V64.454C74.8938 65.4753 75.2142 66.4544 75.7837 67.1765C76.3533 67.8987 77.1255 68.3049 77.9309 68.306Z" fill="#CACACA"/>
<path d="M84.7318 45.8793H138.33C138.677 45.8787 139.016 45.7421 139.3 45.4881C139.584 45.2342 139.8 44.8753 139.917 44.4604L145.983 22.8809C146.074 22.5588 146.102 22.2139 146.065 21.875C146.029 21.5362 145.929 21.2135 145.774 20.9339C145.618 20.6543 145.412 20.4261 145.173 20.2683C144.934 20.1106 144.668 20.0281 144.398 20.0276L77.4001 19.909H77.3978C77.119 19.909 76.8445 19.9968 76.5991 20.1644C76.3536 20.3319 76.1448 20.5741 75.9913 20.8692C75.8378 21.1643 75.7445 21.5031 75.7197 21.8552C75.6949 22.2073 75.7395 22.5617 75.8493 22.8866L83.1834 44.5847C83.313 44.9691 83.5289 45.2968 83.8042 45.5269C84.0795 45.7571 84.4021 45.8796 84.7318 45.8793Z" fill="#E4E4E4"/>
<path d="M123.135 62.5607H141.617C142.072 62.5607 142.509 62.3313 142.831 61.923C143.153 61.5147 143.334 60.9609 143.334 60.3835C143.334 59.8061 143.153 59.2524 142.831 58.8441C142.509 58.4358 142.072 58.2064 141.617 58.2064H123.135C122.679 58.2064 122.243 58.4358 121.921 58.8441C121.599 59.2524 121.418 59.8061 121.418 60.3835C121.418 60.9609 121.599 61.5147 121.921 61.923C122.243 62.3313 122.679 62.5607 123.135 62.5607Z" fill="#F2F2F2"/>
<path d="M49.8579 75.6549H64.9527C65.6805 75.6539 66.3783 75.2868 66.893 74.6343C67.4077 73.9817 67.6972 73.0969 67.698 72.174V62.0975C67.6919 55.2111 65.5316 48.6089 61.6911 43.7394C57.8507 38.8699 52.6437 36.1308 47.2125 36.123H47.1125V72.174C47.1134 73.0969 47.4029 73.9817 47.9175 74.6343C48.4322 75.2868 49.13 75.6539 49.8579 75.6549Z" fill="#001344"/>
<path d="M75.23 63.3894C75.4999 63.389 75.7639 63.2898 75.9904 63.1037C76.217 62.9177 76.3963 62.6527 76.507 62.3407L77.7144 58.9282C77.8658 58.4989 77.8767 58.0109 77.7448 57.5714C77.6128 57.1319 77.3488 56.7767 77.0105 56.5838L55.9245 44.5899C55.5801 44.3936 55.2086 44.2853 54.8312 44.2712C54.4538 44.257 54.0779 44.3374 53.7249 44.5075C53.372 44.6777 53.049 44.9343 52.7743 45.2628C52.4997 45.5913 52.2788 45.9852 52.1242 46.422C51.9697 46.8588 51.8845 47.33 51.8737 47.8085C51.8628 48.2871 51.9264 48.7636 52.0608 49.211C52.1953 49.6584 52.3979 50.0678 52.6572 50.4158C52.9165 50.7638 53.2273 51.0436 53.5719 51.2393L74.6579 63.233C74.8377 63.3362 75.0327 63.3895 75.23 63.3894Z" fill="#1278FB"/>
<path d="M54.2559 18.0705C54.0883 17.6238 54.0213 17.1271 54.0626 16.6352C54.1038 16.1433 54.2516 15.6754 54.4895 15.2834C54.735 14.8463 55.049 14.478 55.4117 14.2015C55.7744 13.925 56.1782 13.7463 56.5978 13.6764C58.6148 13.3081 60.5719 14.877 62.5758 14.2924C64.4089 13.7577 64.9975 11.1752 64.3256 9.1404C63.632 7.03963 61.9651 5.5601 60.3048 4.86867C58.4126 4.06747 56.3518 4.19929 54.5329 5.23789C54.3174 5.36496 53.999 5.15037 54.0925 4.80861C54.3692 3.79741 54.0203 2.72462 53.4222 2.02252C52.7561 1.24061 51.7998 0.947758 50.9211 0.833602C49.2547 0.631182 47.5732 0.864043 45.9805 1.51781C42.7572 2.81749 39.965 5.71819 38.4706 9.58553C37.7047 11.6017 37.2727 13.7955 37.2013 16.0315C37.1298 18.2675 37.4204 20.4984 38.0551 22.5866C39.415 26.9957 43.0676 30.7651 42.3149 35.9383C42.1547 36.9549 41.7983 37.9054 41.2775 38.7048C40.7568 39.5041 40.0881 40.1274 39.331 40.5191C38.5574 40.9034 37.7192 41.0308 36.8958 40.8893C36.0725 40.7477 35.2913 40.3418 34.6264 39.7101C34.2942 39.3979 33.9953 39.0325 33.7372 38.6229C33.4999 38.2434 33.9214 37.702 34.1611 38.0853C34.671 38.9282 35.3655 39.5618 36.1578 39.9069C36.9502 40.252 37.8051 40.2933 38.6159 40.0256C39.4266 39.7579 40.1571 39.1931 40.7161 38.4018C41.275 37.6106 41.6376 36.6279 41.7584 35.5768C42.0611 33.0852 41.1144 30.6555 40.1058 28.6061C39.0694 26.5003 37.9239 24.5029 37.2871 22.13C36.7245 19.991 36.5 17.7324 36.6263 15.4833C36.7526 13.2342 37.2274 11.0388 38.0234 9.0225C39.5799 5.12621 42.4238 2.20759 45.6773 0.843814C47.2857 0.162039 48.9846 -0.109237 50.6761 0.0456332C52.3707 0.212785 54.396 1.07887 54.7483 3.50007C54.8268 4.00358 54.8001 4.52438 54.6706 5.0107L54.2302 4.58143C57.5465 2.62556 61.9609 3.63483 64.2218 7.4224C65.3002 9.22913 65.6323 11.822 64.4542 13.6953C63.1599 15.7533 60.9099 15.1687 59.1593 14.6951C58.0573 14.397 56.7273 14.0563 55.7034 14.8543C54.9879 15.4119 54.3471 16.6187 54.7736 17.6868C54.9476 18.1222 54.4305 18.5075 54.2559 18.0705Z" fill="#001344"/>
<path d="M17.1557 99.6933C17.1556 99.733 17.1617 99.7722 17.1736 99.8089C17.1856 99.8455 17.2031 99.8788 17.2252 99.9068C17.2473 99.9348 17.2735 99.9571 17.3024 99.9722C17.3313 99.9873 17.3623 99.995 17.3935 99.9949H146.762C146.825 99.9949 146.886 99.9631 146.93 99.9066C146.975 99.85 147 99.7733 147 99.6933C147 99.6134 146.975 99.5367 146.93 99.4801C146.886 99.4236 146.825 84.5 146.762 84.5L17.3935 99.3918C17.3623 99.3917 17.3313 99.3994 17.3024 99.4145C17.2735 99.4296 17.2473 99.4518 17.2252 99.4799C17.2031 99.5079 17.1856 99.5412 17.1736 99.5778C17.1617 99.6144 17.1556 99.6537 17.1557 99.6933Z" fill="#001344"/>
<path d="M110.968 51.2009C108.65 51.2009 106.77 48.8184 106.77 45.8793C106.77 42.9403 108.65 40.5577 110.968 40.5577C113.285 40.5577 115.165 42.9403 115.165 45.8793C115.165 48.8184 113.285 51.2009 110.968 51.2009Z" fill="#3F3D56"/>
</g>
<defs>
<clipPath id="clip0_1327_37">
<rect width="147" height="100" fill="white" transform="matrix(-1 0 0 1 147 0)"/>
</clipPath>
</defs>
</svg>
