<svg width="209" height="99" viewBox="0 0 209 99" fill="none" xmlns="http://www.w3.org/2000/svg">
<g clip-path="url(#clip0_1327_142)">
<path d="M184.929 98.4837L185.642 85.4049C185.642 85.4049 209 80.6234 209 66.8414C209 53.0594 170.829 51.3718 166.983 57.7003C166.945 57.7636 166.907 57.8269 166.869 57.8901C162.119 65.7996 164.801 76.0682 172.883 80.6359C175.647 82.1978 178.942 83.5344 182.793 84.2799L182.522 98.1737" fill="#CCCCCC"/>
<path d="M163.265 27.078C170.548 27.078 176.452 21.2486 176.452 14.0576C176.452 6.86659 170.548 1.03714 163.265 1.03714C155.982 1.03714 150.078 6.86659 150.078 14.0576C150.078 21.2486 155.982 27.078 163.265 27.078Z" fill="#FB9512"/>
<path d="M143.811 95.3834L128.938 94.4473L128.136 28.4149C128.117 26.8122 128.764 25.2428 129.912 24.1093L145.845 8.37717C148.076 6.17511 151.586 6.01597 154.011 8.00793L171.302 22.2102C172.713 23.3688 173.509 25.0723 173.488 26.8839L172.894 76.5436L180.409 86.8496L180.425 86.8714L181.698 97.768L143.811 95.3834Z" fill="#E6E6E6"/>
<path d="M146.311 23.7521V20.6902C146.311 19.882 146.977 19.2244 147.795 19.2244H152.152C152.971 19.2244 153.637 19.882 153.637 20.6902V23.7521C153.637 24.5604 152.971 25.2179 152.152 25.2179H147.795C146.977 25.2179 146.311 24.5604 146.311 23.7521Z" fill="#1278FB"/>
<path d="M137.101 47.5196V36.1907C137.101 35.3825 137.767 34.7249 138.585 34.7249H145.035C145.854 34.7249 146.52 35.3825 146.52 36.1907V47.5196C146.52 48.3278 145.854 48.9854 145.035 48.9854H138.585C137.767 48.9854 137.101 48.3278 137.101 47.5196Z" fill="#001344"/>
<path d="M151.681 74.0381C150.901 74.0108 150.273 73.3862 150.249 72.6162L149.923 61.6663C149.909 61.1989 150.114 60.7646 150.485 60.4741C150.857 60.1839 151.332 60.087 151.79 60.2069L152.116 60.2929C152.765 60.4638 153.218 61.0461 153.218 61.7091V72.5732C153.218 72.9745 153.057 73.3491 152.764 73.6278C152.485 73.8942 152.121 74.0389 151.735 74.0389C151.717 74.0389 151.699 74.0387 151.681 74.0381Z" fill="#001344"/>
<path d="M131.903 73.6278C131.61 73.3491 131.449 72.9745 131.449 72.5732V61.7091C131.449 61.0461 131.902 60.4638 132.551 60.2929L132.877 60.2069C133.335 60.087 133.81 60.1839 134.182 60.4741C134.553 60.7644 134.758 61.1989 134.744 61.6663L134.418 72.6162C134.395 73.3862 133.766 74.0109 132.986 74.0381C132.968 74.0387 132.95 74.0389 132.932 74.0389C132.546 74.0389 132.182 73.894 131.903 73.6278Z" fill="#001344"/>
<path d="M138.147 72.5272V61.1654C138.147 60.3634 138.783 59.7197 139.596 59.6999L145.458 59.5589C146.271 59.5478 146.954 60.1775 146.978 60.9818L147.316 72.4846C147.328 72.8841 147.179 73.2619 146.897 73.5485C146.615 73.8351 146.237 73.9929 145.832 73.9929H139.632C138.813 73.9929 138.147 73.3353 138.147 72.5272Z" fill="#001344"/>
<path d="M172.799 80.2909L177.393 88.3567L177.921 97.4276L181.58 97.657L180.324 86.91L172.789 76.5763C172.138 77.7322 172.142 79.1385 172.799 80.2909Z" fill="#CCCCCC"/>
<path d="M177.774 94.8315L162.861 95.0328L162.864 95.2394L177.777 95.0381L177.774 94.8315Z" fill="#001344"/>
<path d="M176.869 93.0074L162.729 93.1165L162.731 93.3231L176.871 93.2141L176.869 93.0074Z" fill="#001344"/>
<path d="M176.136 91.1435L162.61 91.4044L162.614 91.611L176.14 91.3502L176.136 91.1435Z" fill="#001344"/>
<path d="M175.716 89.2899L162.727 89.7157L162.734 89.9224L175.723 89.4965L175.716 89.2899Z" fill="#001344"/>
<path d="M175.088 87.6393L162.608 88.0725L162.615 88.2792L175.095 87.846L175.088 87.6393Z" fill="#001344"/>
<path d="M174.254 86.1867H162.099V86.3934H174.254V86.1867Z" fill="#001344"/>
<path d="M173.625 84.7365L161.812 84.8732L161.814 85.0798L173.627 84.9432L173.625 84.7365Z" fill="#001344"/>
<path d="M172.994 83.2909L161.548 83.6662L161.555 83.8729L173.001 83.4976L172.994 83.2909Z" fill="#001344"/>
<path d="M172.578 81.8518L161.274 82.048L161.278 82.2546L172.581 82.0585L172.578 81.8518Z" fill="#001344"/>
<path d="M171.739 80.4204L160.916 80.7543L160.923 80.961L171.745 80.6271L171.739 80.4204Z" fill="#001344"/>
<path d="M171.323 79.1597L160.595 79.2632L160.597 79.4699L171.325 79.3664L171.323 79.1597Z" fill="#001344"/>
<path d="M159.811 74.904V60.8883C159.811 60.08 160.477 59.4224 161.296 59.4224H168.165C168.983 59.4224 169.649 60.08 169.649 60.8883V74.904C169.649 75.7121 168.983 76.3697 168.165 76.3697H161.296C160.477 76.3697 159.811 75.7121 159.811 74.904Z" fill="#1278FB"/>
<path d="M143.811 95.3834L131.652 94.6187L131.554 94.6124V85.321C131.554 84.1459 132.522 83.1899 133.712 83.1899H145.722C146.912 83.1899 147.88 84.1459 147.88 85.321V95.3836H147.776L143.811 95.3834Z" fill="#CCCCCC"/>
<path d="M160.648 49.4831V38.7741C160.648 37.9659 161.314 37.3083 162.133 37.3083H164.397C165.215 37.3083 165.881 37.9659 165.881 38.7741V49.4831C165.881 50.2912 165.215 50.9488 164.397 50.9488H162.133C161.314 50.9488 160.648 50.2912 160.648 49.4831Z" fill="#001344"/>
<path d="M162.951 96.417L162.323 87.3234L160.439 78.6431L159.916 76.2663C158.841 75.5443 157.392 76.3475 157.457 77.6298L157.509 78.6431L159.393 87.3234L160.021 96.417" fill="#CCCCCC"/>
<path d="M91.6915 92.0766L76.8194 91.1405L76.0173 25.1081C75.9979 23.5054 76.645 21.936 77.793 20.8025L93.7262 5.07039C95.9565 2.86802 99.467 2.70928 101.892 4.70114L119.183 18.9034C120.594 20.062 121.39 21.7655 121.369 23.5772L120.774 73.2368L128.29 83.5429L128.306 83.5647L129.579 94.4612L91.6915 92.0766Z" fill="#E6E6E6"/>
<path d="M94.1912 20.4454V17.3834C94.1912 16.5752 94.8571 15.9176 95.6758 15.9176H100.033C100.851 15.9176 101.517 16.5752 101.517 17.3834V20.4454C101.517 21.2536 100.851 21.9112 100.033 21.9112H95.6758C94.8571 21.9112 94.1912 21.2536 94.1912 20.4454Z" fill="#1278FB"/>
<path d="M84.9814 44.2128V32.8839C84.9814 32.0757 85.6474 31.4182 86.4661 31.4182H92.9162C93.7346 31.4182 94.4006 32.0757 94.4006 32.8839V44.2128C94.4006 45.0211 93.7346 45.6786 92.9162 45.6786H86.4661C85.6474 45.6786 84.9814 45.0211 84.9814 44.2128Z" fill="#001344"/>
<path d="M98.4963 57.3294C98.1775 57.5787 98.0015 57.9521 98.0135 58.3535L98.3396 69.3034C98.3594 69.9648 98.8994 70.5013 99.5691 70.5247C99.9211 70.5386 100.249 70.4116 100.5 70.1723C100.751 69.9329 100.889 69.6112 100.889 69.2665V58.4024C100.889 57.8328 100.5 57.3327 99.9427 57.186L99.6165 57.1C99.5061 57.0709 99.3945 57.0566 99.2839 57.0566C99.001 57.0566 98.7257 57.1502 98.4963 57.3294Z" fill="#001344"/>
<path d="M79.7832 70.321C79.4909 70.0423 79.3298 69.6677 79.3298 69.2665V58.4024C79.3298 57.7394 79.783 57.1571 80.4318 56.9861L80.758 56.9002C81.2151 56.7803 81.691 56.8771 82.0622 57.1674C82.4336 57.4578 82.6384 57.8923 82.6245 58.3596L82.2982 69.3094C82.2754 70.0794 81.6468 70.7041 80.867 70.7313C80.849 70.7319 80.8308 70.7321 80.8128 70.7321C80.4267 70.7321 80.0628 70.5872 79.7832 70.321Z" fill="#001344"/>
<path d="M86.0281 69.2204V57.8586C86.0281 57.0565 86.6642 56.4129 87.4765 56.3931L93.3389 56.2521C93.3514 56.2518 93.3635 56.2516 93.3757 56.2516C94.1739 56.2516 94.8358 56.8828 94.8591 57.675L95.1968 69.1778C95.2085 69.5772 95.0596 69.9551 94.7776 70.2417C94.4957 70.5283 94.1175 70.6861 93.7128 70.6861H87.5127C86.694 70.6861 86.0281 70.0285 86.0281 69.2204Z" fill="#001344"/>
<path d="M120.679 76.9842L125.274 85.0499L125.802 94.1208L129.461 94.3502L128.205 83.6032L120.669 73.2695C120.019 74.4254 120.023 75.8317 120.679 76.9842Z" fill="#CCCCCC"/>
<path d="M125.655 91.5246L110.742 91.726L110.745 91.9326L125.658 91.7313L125.655 91.5246Z" fill="#001344"/>
<path d="M124.75 89.7006L110.61 89.8097L110.612 90.0164L124.752 89.9073L124.75 89.7006Z" fill="#001344"/>
<path d="M124.016 87.8367L110.491 88.0975L110.495 88.3042L124.021 88.0434L124.016 87.8367Z" fill="#001344"/>
<path d="M123.597 85.9831L110.607 86.4089L110.614 86.6156L123.603 86.1898L123.597 85.9831Z" fill="#001344"/>
<path d="M122.969 84.3325L110.489 84.7657L110.496 84.9724L122.976 84.5392L122.969 84.3325Z" fill="#001344"/>
<path d="M122.135 82.8799H109.979V83.0866H122.135V82.8799Z" fill="#001344"/>
<path d="M121.505 81.4297L109.693 81.5663L109.695 81.773L121.508 81.6363L121.505 81.4297Z" fill="#001344"/>
<path d="M120.875 79.9842L109.429 80.3594L109.436 80.5661L120.882 80.1908L120.875 79.9842Z" fill="#001344"/>
<path d="M120.458 78.545L109.155 78.7412L109.159 78.9479L120.462 78.7517L120.458 78.545Z" fill="#001344"/>
<path d="M119.619 77.1136L108.797 77.4476L108.803 77.6542L119.626 77.3203L119.619 77.1136Z" fill="#001344"/>
<path d="M119.203 75.853L108.476 75.9564L108.478 76.1631L119.205 76.0597L119.203 75.853Z" fill="#001344"/>
<path d="M107.692 71.5971V57.5815C107.692 56.7732 108.358 56.1156 109.176 56.1156H116.045C116.864 56.1156 117.53 56.7732 117.53 57.5815V71.5971C117.53 72.4053 116.864 73.0628 116.045 73.0628H109.176C108.358 73.0628 107.692 72.4053 107.692 71.5971Z" fill="#1278FB"/>
<path d="M91.6915 92.0766L79.5325 91.3119L79.4346 91.3056V82.0142C79.4346 80.8391 80.4029 79.8831 81.5929 79.8831H93.6029C94.793 79.8831 95.7611 80.8391 95.7611 82.0142V92.0768H95.6564L91.6915 92.0766Z" fill="#CCCCCC"/>
<path d="M108.529 46.1763V35.4674C108.529 34.6591 109.195 34.0016 110.014 34.0016H112.278C113.096 34.0016 113.762 34.6591 113.762 35.4674V46.1763C113.762 46.9845 113.096 47.642 112.278 47.642H110.014C109.195 47.642 108.529 46.9845 108.529 46.1763Z" fill="#001344"/>
<path d="M110.832 93.1102L110.204 84.0166L108.32 75.3363L107.797 72.9596C106.721 72.2376 105.273 73.0407 105.338 74.3231L105.39 75.3363L107.273 84.0166L107.901 93.1102" fill="#CCCCCC"/>
<path d="M39.5724 88.7698L24.7002 87.8338L23.8981 21.8014C23.8787 20.1986 24.5259 18.6292 25.6738 17.4957L41.607 1.76361C43.8373 -0.438654 47.348 -0.597394 49.7727 1.39436L67.0638 15.5966C68.4744 16.7552 69.271 18.4588 69.2494 20.2704L68.6553 69.9301L76.1706 80.2361L76.1864 80.2579L77.4598 91.1545L39.5724 88.7698Z" fill="#E6E6E6"/>
<path d="M42.072 17.1386V14.0766C42.072 13.2684 42.738 12.6108 43.5566 12.6108H47.9136C48.732 12.6108 49.398 13.2684 49.398 14.0766V17.1386C49.398 17.9468 48.732 18.6044 47.9136 18.6044H43.5566C42.738 18.6044 42.072 17.9468 42.072 17.1386Z" fill="#1278FB"/>
<path d="M32.8623 40.906V29.5771C32.8623 28.7689 33.5283 28.1114 34.3469 28.1114H40.797C41.6155 28.1114 42.2814 28.7689 42.2814 29.5771V40.906C42.2814 41.7143 41.6155 42.3718 40.797 42.3718H34.3469C33.5283 42.3718 32.8623 41.7143 32.8623 40.906Z" fill="#001344"/>
<path d="M47.4425 67.4245C46.6629 67.3973 46.0341 66.7726 46.011 66.0026L45.685 55.0528C45.6711 54.5853 45.8759 54.1508 46.2471 53.8606C46.6183 53.5703 47.0936 53.4733 47.5512 53.5934L47.8775 53.6793C48.5263 53.8503 48.9794 54.4326 48.9794 55.0956V65.9597C48.9794 66.3609 48.8184 66.7355 48.5261 67.0142C48.2464 67.2806 47.8828 67.4254 47.4967 67.4254C47.4787 67.4254 47.4605 67.4251 47.4425 67.4245Z" fill="#001344"/>
<path d="M28.3397 53.7792L28.6659 53.6933C29.5582 53.4584 30.4278 54.1384 30.4007 55.0498L30.0745 65.9997C30.0531 66.7176 29.4711 67.2958 28.7441 67.3212C27.9634 67.3485 27.3154 66.731 27.3154 65.9596V55.0956C27.3154 54.4784 27.7357 53.9382 28.3397 53.7792Z" fill="#001344"/>
<path d="M33.9089 65.9136V54.5518C33.9089 53.7498 34.5451 53.1061 35.3574 53.0863L41.2198 52.9453C42.0366 52.9323 42.7163 53.5639 42.74 54.3682L43.0777 65.871C43.0893 66.2705 42.9405 66.6483 42.6584 66.9349C42.3765 67.2215 41.9984 67.3793 41.5937 67.3793H35.3936C34.5749 67.3793 33.9089 66.7218 33.9089 65.9136Z" fill="#001344"/>
<path d="M68.5603 73.6774L73.1552 81.7432L73.6827 90.8141L77.3415 91.0435L76.0856 80.2964L68.5503 69.9628C67.9 71.1186 67.9037 72.5249 68.5603 73.6774Z" fill="#CCCCCC"/>
<path d="M73.5356 88.2179L58.6223 88.4192L58.6252 88.6259L73.5385 88.4245L73.5356 88.2179Z" fill="#001344"/>
<path d="M72.6311 86.3939L58.491 86.5029L58.4926 86.7096L72.6327 86.6005L72.6311 86.3939Z" fill="#001344"/>
<path d="M71.8971 84.5299L58.3713 84.7908L58.3754 84.9974L71.9012 84.7366L71.8971 84.5299Z" fill="#001344"/>
<path d="M71.4774 82.6763L58.4883 83.1021L58.4952 83.3088L71.4843 82.8829L71.4774 82.6763Z" fill="#001344"/>
<path d="M70.8494 81.0258L58.3696 81.459L58.377 81.6657L70.8567 81.2325L70.8494 81.0258Z" fill="#001344"/>
<path d="M70.0155 79.5732H57.8604V79.7799H70.0155V79.5732Z" fill="#001344"/>
<path d="M69.3864 78.1229L57.5735 78.2596L57.5759 78.4663L69.3888 78.3296L69.3864 78.1229Z" fill="#001344"/>
<path d="M68.7561 76.6773L57.3096 77.0526L57.3165 77.2593L68.763 76.884L68.7561 76.6773Z" fill="#001344"/>
<path d="M68.3393 75.2383L57.0361 75.4344L57.0398 75.6411L68.343 75.4449L68.3393 75.2383Z" fill="#001344"/>
<path d="M67.5003 73.8068L56.6775 74.1407L56.684 74.3474L67.5068 74.0135L67.5003 73.8068Z" fill="#001344"/>
<path d="M67.084 72.5462L56.3567 72.6497L56.3587 72.8563L67.0861 72.7529L67.084 72.5462Z" fill="#001344"/>
<path d="M55.5728 68.2904V54.2747C55.5728 53.4664 56.2387 52.8088 57.0574 52.8088H63.9261C64.7445 52.8088 65.4105 53.4664 65.4105 54.2747V68.2904C65.4105 69.0985 64.7445 69.7561 63.9261 69.7561H57.0574C56.2387 69.7561 55.5728 69.0985 55.5728 68.2904Z" fill="#1278FB"/>
<path d="M39.5724 88.7698L27.4133 88.0051L27.3154 87.9988V78.7074C27.3154 77.5324 28.2837 76.5763 29.4738 76.5763H41.4838C42.6738 76.5763 43.6419 77.5324 43.6419 78.7074V88.77H43.5373L39.5724 88.7698Z" fill="#CCCCCC"/>
<path d="M56.4102 42.8694V32.1606C56.4102 31.3523 57.0761 30.6948 57.8948 30.6948H60.1586C60.977 30.6948 61.643 31.3523 61.643 32.1606V42.8694C61.643 43.6777 60.977 44.3352 60.1586 44.3352H57.8948C57.0761 44.3352 56.4102 43.6777 56.4102 42.8694Z" fill="#001344"/>
<path d="M58.7126 89.8034L58.0847 80.7098L56.2009 72.0295L55.6776 69.6527C54.6023 68.9307 53.1542 69.7339 53.2192 71.0162L53.2705 72.0295L55.1543 80.7098L55.7822 89.8034" fill="#CCCCCC"/>
<path d="M20.4087 87.53L21.1208 74.4512C21.1208 74.4512 44.4792 69.6697 44.4792 55.8877C44.4792 42.1057 6.30819 40.4181 2.4626 46.7466C2.42414 46.8099 2.38592 46.8731 2.34794 46.9364C-2.40194 54.8459 0.279782 65.1144 8.36245 69.6822C11.1263 71.2441 14.4216 72.5806 18.2722 73.3261L18.001 87.22" fill="#CCCCCC"/>
<path d="M5.27283 86.4219L5.24585 86.8345L195.696 98.9785L195.723 98.5659L5.27283 86.4219Z" fill="#CCCCCC"/>
</g>
<defs>
<clipPath id="clip0_1327_142">
<rect width="209" height="99" fill="white"/>
</clipPath>
</defs>
</svg>
