<svg width="90" height="59" viewBox="0 0 90 59" fill="none" xmlns="http://www.w3.org/2000/svg">
<g clip-path="url(#clip0_1327_415)">
<path d="M20.0735 54.6557C20.0735 54.6557 15.5161 51.5213 14.6551 47.5343C14.306 45.8597 13.3695 44.3333 11.9861 43.1839C11.3243 42.6432 10.6095 42.1588 9.85071 41.7366" stroke="#535461" stroke-width="2" stroke-miterlimit="10"/>
<path d="M64.3473 27.5457C64.3473 27.5457 67.1563 23.0189 71.3906 21.7148C73.1687 21.1776 74.7073 20.1304 75.7758 18.7304C76.2769 18.061 76.7093 17.3512 77.0676 16.6099" stroke="#535461" stroke-width="2" stroke-miterlimit="10"/>
<path opacity="0.25" d="M79.7258 15.7807C79.2435 16.2058 76.9988 16.6461 76.9988 16.6461C76.9988 16.6461 77.5498 14.6183 78.0321 14.1924C78.2649 13.9941 78.5739 13.8869 78.8927 13.8939C79.2115 13.9008 79.5145 14.0214 79.7366 14.2296C79.9586 14.4379 80.0819 14.7171 80.0799 15.0072C80.0779 15.2972 79.9507 15.575 79.7258 15.7807Z" fill="black"/>
<path opacity="0.25" d="M78.4564 19.4466C77.7934 19.5657 75.6498 18.8254 75.6498 18.8254C75.6498 18.8254 77.3236 17.3931 77.9824 17.2763C78.1405 17.2443 78.3041 17.2415 78.4635 17.2679C78.623 17.2942 78.775 17.3493 78.9107 17.4298C79.0464 17.5104 79.163 17.6148 79.2537 17.7369C79.3445 17.859 79.4075 17.9964 79.439 18.141C79.4706 18.2855 79.4701 18.4344 79.4376 18.5788C79.4051 18.7232 79.3411 18.8602 79.2496 18.9818C79.1581 19.1035 79.0407 19.2072 78.9045 19.287C78.7683 19.3668 78.6159 19.4211 78.4564 19.4466Z" fill="black"/>
<path opacity="0.25" d="M73.8359 23.4177C73.2012 23.2179 71.7585 21.5927 71.7585 21.5927C71.7585 21.5927 73.9958 21.1268 74.6322 21.3266C74.7851 21.3727 74.9264 21.446 75.0479 21.5423C75.1694 21.6385 75.2687 21.7557 75.34 21.8871C75.4113 22.0185 75.4532 22.1615 75.4633 22.3078C75.4734 22.4541 75.4514 22.6007 75.3986 22.7392C75.3459 22.8776 75.2635 23.0052 75.1561 23.1145C75.0487 23.2237 74.9186 23.3125 74.7732 23.3756C74.6278 23.4387 74.4701 23.475 74.3092 23.4822C74.1483 23.4894 73.9874 23.4675 73.8359 23.4177Z" fill="black"/>
<path opacity="0.25" d="M69.5901 25.7064C68.9271 25.6069 67.2069 24.2236 67.2069 24.2236C67.2069 24.2236 69.3274 23.42 69.9895 23.5195C70.3081 23.5672 70.5929 23.7281 70.7812 23.9668C70.9694 24.2055 71.0457 24.5025 70.9933 24.7924C70.9409 25.0823 70.7641 25.3413 70.5017 25.5126C70.2393 25.6839 69.9129 25.7533 69.5942 25.7056L69.5901 25.7064Z" fill="black"/>
<path opacity="0.25" d="M73.778 17.2401C73.7771 17.8514 74.996 19.6252 74.996 19.6252C74.996 19.6252 76.2133 17.8537 76.2133 17.2431C76.2175 17.0954 76.1892 16.9484 76.13 16.8108C76.0708 16.6732 75.9819 16.5478 75.8686 16.442C75.7552 16.3362 75.6198 16.2521 75.4701 16.1946C75.3205 16.1372 75.1597 16.1076 74.9973 16.1076C74.8349 16.1076 74.6741 16.1372 74.5245 16.1946C74.3748 16.2521 74.2393 16.3362 74.126 16.442C74.0127 16.5478 73.9238 16.6732 73.8646 16.8108C73.8054 16.9484 73.777 17.0954 73.7813 17.2431L73.778 17.2401Z" fill="black"/>
<path opacity="0.25" d="M68.8534 19.9735C69.0539 20.5569 70.7973 21.9176 70.7973 21.9176C70.7973 21.9176 71.3774 19.8958 71.1752 19.3124C71.0703 19.0421 70.8543 18.8193 70.5725 18.691C70.2907 18.5627 69.9652 18.5389 69.6645 18.6246C69.3638 18.7102 69.1114 18.8987 68.9604 19.1503C68.8094 19.402 68.7716 19.697 68.855 19.9735H68.8534Z" fill="black"/>
<path opacity="0.25" d="M64.4723 23.2277C64.5618 23.8308 66.0268 25.4417 66.0268 25.4417C66.0268 25.4417 66.9723 23.5383 66.8828 22.933C66.8651 22.7863 66.8153 22.6444 66.7363 22.5155C66.6574 22.3866 66.5509 22.2734 66.4231 22.1825C66.2954 22.0916 66.1489 22.0248 65.9924 21.9862C65.8359 21.9475 65.6724 21.9377 65.5117 21.9574C65.3509 21.977 65.1961 22.0257 65.0564 22.1006C64.9166 22.1755 64.7947 22.2751 64.6979 22.3934C64.601 22.5118 64.5312 22.6466 64.4925 22.7899C64.4537 22.9331 64.4469 23.082 64.4723 23.2277Z" fill="black"/>
<path d="M64.5088 27.456C64.5088 27.456 65.0607 22.2817 68.347 19.5302C69.7331 18.3835 70.6734 16.859 71.0268 15.1851C71.1876 14.3894 71.2678 13.5819 71.2663 12.7729" stroke="#535461" stroke-width="2" stroke-miterlimit="10"/>
<path d="M60.2828 7.1923C60.4204 6.73322 60.5861 6.27188 60.7021 5.80676C60.5629 6.27188 60.3964 6.73473 60.2828 7.1923Z" fill="url(#paint0_linear_1327_415)"/>
<path d="M59.6663 11.6142C59.6547 11.5962 59.6464 11.5781 59.6373 11.5615C59.6373 11.5539 59.629 11.5479 59.6257 11.5404C59.6076 11.5481 59.5891 11.5549 59.5702 11.5607C59.5337 11.5735 59.4964 11.5856 59.4583 11.5954C59.4202 11.6052 59.4045 11.6105 59.3755 11.6165C59.3514 11.624 59.3268 11.6298 59.3017 11.6338L59.3083 11.6474C59.339 11.6414 59.3688 11.6361 59.3995 11.6286L59.4078 11.722C59.4426 11.722 59.4749 11.7175 59.5064 11.7175C59.5213 11.7168 59.5362 11.7168 59.5511 11.7175C59.6158 11.7175 59.6721 11.7175 59.7169 11.7175C59.6994 11.6836 59.6812 11.6482 59.6663 11.6142ZM76.4875 35.9727C76.098 35.4956 75.3208 30.3741 75.3208 30.3741C75.3208 30.3741 73.792 26.7323 74.2088 25.2789C74.6256 23.8255 73.0702 20.1069 73.0702 20.1069C73.0702 20.1069 72.0427 19.7006 71.9872 19.0975C71.9872 19.0975 67.7919 17.8914 67.5955 16.9868C67.4364 16.245 64.8345 15.7128 63.8998 15.5447C63.6147 14.4984 63.328 13.5222 63.1167 12.9892C63.0595 12.8234 63.0057 12.6802 62.956 12.5671C62.5988 11.7379 61.4951 11.6625 60.6946 11.7288C60.6599 11.5875 60.5955 11.4536 60.5049 11.3346C60.4916 11.2936 60.4654 11.2572 60.4295 11.2298C60.4123 11.2165 60.394 11.2044 60.3748 11.1936C60.3603 11.1692 60.3412 11.1472 60.3184 11.1288C60.2957 11.1101 60.2707 11.094 60.2439 11.0805C60.2246 11.0711 60.2047 11.0627 60.1842 11.0557C60.1362 11.039 60.0865 11.0266 60.0359 11.0187C59.9769 11.0077 59.917 11.0006 59.8569 10.9976C60.0031 10.9394 60.1335 10.8527 60.2389 10.7436C60.3105 10.667 60.3639 10.5776 60.3955 10.4812C60.4217 10.4011 60.4335 10.3176 60.4303 10.234C60.4088 10.2684 60.3838 10.301 60.3557 10.3312C60.3905 9.99728 60.1966 9.65805 60.0856 9.32561C59.9511 8.89283 59.9261 8.43792 60.0127 7.99511C60.1237 7.32721 60.3988 6.65178 60.5853 5.97183C60.5857 5.96807 60.5857 5.96428 60.5853 5.96052C60.683 5.62284 60.7435 5.27713 60.7659 4.92853C60.7982 4.2252 60.6002 3.52339 60.282 2.88263C59.9994 2.315 59.5826 1.75641 58.9446 1.52574C58.4706 1.3516 57.9394 1.3795 57.429 1.35085C56.2838 1.28602 55.1917 0.919659 54.1029 0.586466C53.0141 0.253274 51.8938 -0.0497661 50.7478 0.00827883C49.6018 0.0663237 48.4226 0.569128 47.8998 1.49182C47.734 1.77978 47.6387 2.10016 47.4407 2.37078C47.0695 2.88112 46.4049 3.13667 45.8506 3.48871C45.2962 3.84075 44.8081 4.34054 44.6076 4.93682C44.4981 5.25807 44.4827 5.59977 44.5629 5.9281C44.5809 6.00225 44.6042 6.07527 44.6325 6.14672C44.7111 6.3459 44.8338 6.52831 44.9929 6.68269C45.1129 6.79679 45.2509 6.89409 45.4023 6.97141C45.5924 7.06727 45.7958 7.13928 46.0072 7.18549C45.9997 7.20811 45.9923 7.23223 45.984 7.2556C45.9707 7.29404 45.9591 7.33098 45.9467 7.37244C45.9193 7.46516 45.8936 7.55939 45.8721 7.65437C45.8712 7.66114 45.8712 7.66797 45.8721 7.67473C45.7703 8.10351 45.7192 8.54095 45.7196 8.97961C45.7195 9.18707 45.7311 9.3944 45.7544 9.60076C46.0859 12.6598 48.8618 15.0728 52.2915 15.2296C52.4092 15.2349 52.5277 15.2379 52.6478 15.2379C52.7025 15.2379 52.7564 15.2379 52.8135 15.2379C52.8674 15.3027 52.9204 15.3691 52.971 15.4339C53.0215 15.4987 53.0679 15.5651 53.1118 15.6299L52.9917 15.5168L52.8715 15.4166C52.839 15.4572 52.8026 15.4953 52.763 15.5304C52.6846 15.5053 52.6047 15.4847 52.5235 15.4686C52.1796 15.3992 51.6559 15.3736 50.9665 15.5628C50.3326 15.7354 49.5578 16.0905 48.6513 16.7652L44.2339 19.1774L41.8441 20.4996L40.9832 22.4144C40.9832 22.4144 40.336 24.6894 39.6159 27.2962C39.5878 27.3037 39.5604 27.3112 39.5331 27.3203C39.4748 27.3142 39.4161 27.3112 39.3574 27.3112C38.9396 27.3104 38.5377 27.4568 38.2361 27.7198C37.9345 27.9828 37.7566 28.3419 37.7399 28.7217C36.3081 30.3047 36.2268 31.8877 36.5633 32.6144C36.5937 32.6825 36.6321 32.7475 36.6776 32.8082C36.898 33.0976 37.3099 33.8439 37.7275 34.6392C37.7167 34.7048 37.7101 34.7598 37.7068 34.8013C37.706 34.8149 37.706 34.8284 37.7068 34.842C37.7068 34.842 37.9554 38.2576 37.1267 39.2368C36.9453 39.4502 36.9726 39.7306 37.1267 40.0412C37.6819 41.1583 39.877 42.6502 39.877 42.6502C39.877 42.6502 42.5095 42.6374 43.9762 42.4919C43.9721 42.6261 43.9687 42.7595 43.9654 42.8899C43.9323 44.2076 43.9323 45.3119 43.9323 45.3119L43.8776 46.6937C43.8776 46.6937 43.3804 49.6058 43.1318 50.4086C42.9752 50.9121 43.1559 55.5746 43.3133 59.0022H69.2511C69.556 56.9744 69.1259 50.8134 69.1259 50.8134C69.1259 50.8134 68.7174 49.2206 68.7025 47.832C68.7017 47.8305 68.7013 47.8288 68.7013 47.8271C68.7013 47.8254 68.7017 47.8237 68.7025 47.8222C68.7025 47.7008 68.7025 47.5825 68.7075 47.4664L68.8956 47.4604L69.2337 47.4498H69.2643C69.2643 47.4498 69.2726 47.4212 69.2917 47.3744C69.3364 47.258 69.3974 47.1473 69.4731 47.045C69.6173 46.8513 69.8427 46.6613 70.1816 46.6485C70.3689 46.6417 70.6589 46.5037 70.9862 46.3002C70.9884 46.3007 70.9907 46.3007 70.9928 46.3002C71.8737 45.7582 73.0379 44.7579 73.3205 44.5935C73.7091 44.3674 75.5702 42.8597 75.5702 42.8597C75.5702 42.8597 75.8478 42.5401 76.1436 42.1549L76.1544 42.1413C76.5223 41.6589 76.9134 41.0822 76.8173 40.9005C76.6516 40.5749 76.9283 39.7962 76.9283 39.7962C77.7926 38.3571 76.8769 36.4499 76.4875 35.9727ZM60.4643 12.7864C60.4722 12.809 60.4772 12.8322 60.4792 12.8558C60.4585 12.8309 60.4378 12.8045 60.417 12.7804L60.3972 12.7563L60.3831 12.7382L60.4146 12.699C60.4146 12.699 60.4146 12.699 60.4146 12.7043C60.4364 12.7287 60.4533 12.7566 60.4643 12.7864ZM60.1859 12.1186C60.0955 12.1351 60.0243 12.1502 59.9779 12.1615C59.919 12.0665 59.8627 11.9716 59.8121 11.8751C59.945 11.9452 60.0701 12.0267 60.1859 12.1186ZM60.0301 12.2377C60.0298 12.2362 60.0298 12.2346 60.0301 12.2331L60.0367 12.2377C60.0707 12.258 60.1038 12.2776 60.1345 12.298C60.1618 12.3161 60.1867 12.3334 60.2115 12.3515C60.195 12.3779 60.1767 12.405 60.1585 12.4269C60.1295 12.3854 60.1022 12.3455 60.0756 12.304C60.0591 12.2874 60.0442 12.2648 60.0301 12.2377ZM59.5329 11.3074C59.693 11.2931 59.8542 11.2931 60.0143 11.3074C60.0367 11.3074 60.0566 11.3112 60.0765 11.3142C60.1214 11.3205 60.1655 11.3309 60.2082 11.3451C60.3062 11.4698 60.3664 11.6156 60.3831 11.768L60.3383 11.7741L60.2944 11.7816C60.2115 11.7944 60.1287 11.8072 60.064 11.8193L59.9812 11.8351C59.871 11.857 59.8072 11.8736 59.8047 11.8743C59.7939 11.854 59.7831 11.8351 59.7715 11.8155C59.7533 11.7831 59.7343 11.7499 59.7177 11.7175C59.7011 11.6851 59.6796 11.6482 59.6622 11.6142C59.6506 11.5962 59.6423 11.5781 59.6332 11.5615C59.6332 11.5539 59.6249 11.5479 59.6216 11.5404C59.6167 11.5324 59.6126 11.5241 59.6091 11.5155C59.5586 11.422 59.5122 11.3285 59.4674 11.2366C59.4625 11.2275 59.4583 11.2177 59.4542 11.2087L59.5172 11.2049V11.2245L59.5329 11.3074ZM39.7626 58.0705C39.756 56.9481 39.6665 55.7336 39.4179 54.5939C39.3118 54.1091 39.2025 53.6244 39.0914 53.148C39.0632 53.0289 39.0359 52.9113 39.0086 52.7937L38.7533 52.8246H38.7301C38.0341 49.8387 37.3065 47.2078 37.3065 47.2078C37.3065 47.2078 35.8614 42.1881 36.0288 41.7878C36.0503 41.7358 36.023 41.5956 35.9617 41.3898C35.612 40.2485 34.152 37.1035 33.6415 36.0285C33.6415 36.024 33.6374 36.0187 33.6357 36.015C33.5529 35.8348 33.4932 35.7134 33.475 35.678L33.5951 34.0739L33.6017 33.9774L33.6175 33.7723L33.6109 33.767L33.6175 33.6721C33.6175 33.6721 32.3563 32.7313 30.2201 32.0521C30.1372 32.0249 30.0494 31.9986 29.9624 31.9729C30.0693 31.3239 30.211 30.5912 30.3958 29.8773C30.4132 29.8057 30.4322 29.7363 30.4521 29.6662C30.4695 29.5961 30.4894 29.5283 30.5093 29.4597C30.5408 29.3481 30.5748 29.238 30.6096 29.1295C30.7247 29.0963 30.8383 29.0594 30.9501 29.0202L30.9932 29.0051C32.3713 28.5173 33.5084 27.5917 34.194 26.3998C34.8796 25.2078 35.0672 23.8303 34.722 22.5222C34.5253 21.7803 34.1619 21.0835 33.6548 20.4755C33.6167 20.4288 33.5761 20.382 33.5355 20.3361C33.4948 20.2901 33.446 20.2388 33.4004 20.1921C33.6399 19.6968 33.9224 19.2257 33.9456 18.744C33.9498 18.683 33.9498 18.6218 33.9456 18.5608V18.5532C33.915 18.2434 33.7642 17.9298 33.4128 17.6004C32.8999 17.1172 32.1699 16.8722 31.4398 16.7546C30.7098 16.637 29.9657 16.634 29.2315 16.5548C28.0143 16.4222 26.8285 16.0807 25.6113 15.9759C24.1119 15.8496 22.6024 16.0835 21.2336 16.6544C20.3279 17.0313 19.4106 17.6901 19.3559 18.594C19.3112 19.341 19.8829 20.0571 19.7388 20.7951C19.5954 21.5203 18.7834 22.091 18.8546 22.8244C18.882 23.1109 19.0435 23.3672 19.2457 23.5956C19.3153 23.671 19.3891 23.7464 19.4653 23.8218C19.7603 24.106 20.0851 24.3788 20.25 24.7369C20.2567 24.752 20.2633 24.7671 20.2691 24.7821C20.4091 25.1357 20.3461 25.5827 19.9998 25.7855C20.0017 25.7868 20.0031 25.7887 20.0039 25.7908C20.0089 25.7968 20.0139 25.8013 20.018 25.8074C20.0185 25.8061 20.0185 25.8048 20.018 25.8036C20.1408 25.936 20.3064 26.0299 20.4912 26.0719L20.5616 26.0915C20.5044 26.1481 20.4506 26.2069 20.3959 26.2687L20.3602 26.3117C20.2689 26.4234 20.1859 26.5405 20.1116 26.6622C20.0694 26.73 20.0288 26.7979 19.9948 26.8657C19.8812 27.0725 19.799 27.2924 19.7504 27.5193C19.6617 28.0183 19.7868 28.5385 19.6526 29.027C19.4869 29.63 18.9623 30.0929 18.6665 30.653C18.1064 31.7083 18.4237 32.9469 18.5364 34.1123C18.6897 35.6953 18.4411 37.2852 18.1934 38.8577C18.0619 39.6939 17.9304 40.5309 17.7989 41.3687C17.4675 43.4713 17.136 45.574 16.8046 47.6767C16.6836 48.4471 16.5402 49.2598 15.976 49.8545H15.9818C15.9818 49.8545 15.9818 49.8591 15.976 49.8606C16.1453 49.9279 16.3255 49.9702 16.5096 49.9857C17.2462 50.0528 18.0268 49.7286 18.6897 49.3743C19.2147 49.0984 19.7119 48.7808 20.1755 48.4253C20.1075 48.6514 20.0346 48.8979 19.9567 49.1633C19.9569 49.1658 19.9569 49.1683 19.9567 49.1708C19.0212 52.4123 17.5164 58.3547 17.5164 58.3547C17.5164 58.3547 17.3797 58.6133 17.2023 58.9985H40.5697C40.2962 58.6969 40.0419 58.4082 39.843 58.1753L39.7626 58.0705ZM22.4608 28.0982C22.4666 28.0892 22.4708 28.0809 22.4766 28.0726C22.4766 28.0967 22.4766 28.1201 22.4766 28.1427C22.4766 28.1653 22.4766 28.1857 22.4766 28.2068C22.4766 28.2279 22.4766 28.2256 22.4766 28.2362C22.4766 28.2671 22.4691 28.298 22.4633 28.3289C22.4633 28.3289 22.4633 28.3327 22.4633 28.3357L22.5462 28.3636L22.6423 28.3998C23.2102 28.6038 23.7852 28.7885 24.3675 28.9538C24.4272 28.9712 24.4876 28.9878 24.5481 29.0036L24.5606 29.0971C24.5755 29.1928 24.5896 29.29 24.6028 29.3873C24.6028 29.3873 24.6028 29.3918 24.6028 29.3948C24.6401 29.6639 24.6766 29.9323 24.7089 30.1946C24.7089 30.1946 23.1875 29.667 23.2066 30.4683C23.2057 30.4826 23.2057 30.4969 23.2066 30.5113C23.2049 30.5303 23.2049 30.5495 23.2066 30.5685C23.2207 31.1927 23.4353 31.5628 23.4784 31.7528C23.4758 31.7607 23.4713 31.7679 23.4651 31.7739C23.4283 31.8467 23.4157 31.9276 23.4287 32.0068C23.4272 32.1417 23.4389 32.2764 23.4635 32.4094C23.4187 32.4343 23.3748 32.4591 23.3309 32.4848C23.2977 32.5036 23.2662 32.5247 23.2339 32.5458C23.0306 31.9044 22.7647 31.2807 22.4393 30.6824C22.2114 30.2557 21.9553 29.8109 21.9578 29.3428C21.9578 29.3127 21.9578 29.2818 21.962 29.2508C21.9712 29.1152 21.9996 28.9811 22.0465 28.8521C22.0656 28.8031 22.0863 28.7548 22.1095 28.7073C22.1636 28.5945 22.2242 28.4843 22.2909 28.3772C22.334 28.3063 22.3796 28.2362 22.4235 28.1653C22.4376 28.1442 22.4509 28.1224 22.4641 28.1013L22.4608 28.0982ZM59.6663 11.6142C59.6547 11.5962 59.6464 11.5781 59.6373 11.5615C59.6373 11.5539 59.629 11.5479 59.6257 11.5404C59.6076 11.5481 59.5891 11.5549 59.5702 11.5607C59.5337 11.5735 59.4964 11.5856 59.4583 11.5954C59.4202 11.6052 59.4045 11.6105 59.3755 11.6165L59.3017 11.6338L59.3083 11.6474C59.339 11.6414 59.3688 11.6361 59.3995 11.6286L59.4078 11.722C59.4426 11.722 59.4749 11.7175 59.5064 11.7175H59.5511C59.6158 11.7175 59.6721 11.7175 59.7169 11.7175C59.6994 11.6836 59.6812 11.6482 59.6663 11.6142Z" fill="url(#paint1_linear_1327_415)"/>
<path d="M41.5608 22.6865L41.0636 22.8863C41.0636 22.8863 37.8229 34.3399 37.8229 35.2656C37.8229 36.1913 44.6947 41.3423 44.6947 41.3423L45.767 34.7583C45.767 34.7583 44.2274 19.6599 41.5608 22.6865Z" fill="#E8F5FF"/>
<path d="M56.6344 19.0432L53.7632 17.6803C53.6024 17.0566 53.317 16.4651 52.9213 15.9352C52.5012 15.3834 51.9427 14.8414 51.2466 14.5587C49.4875 13.841 58.6877 10.0742 58.6877 10.0742C58.8327 10.5267 59.0033 10.972 59.199 11.4084C59.673 12.4728 60.4593 13.8493 61.4728 14.2413C63.1955 14.9085 56.6344 19.0432 56.6344 19.0432Z" fill="#DFEDFF"/>
<path opacity="0.1" d="M59.199 11.4084C58.8059 12.6662 57.9884 13.7798 56.862 14.5921C55.7355 15.4043 54.3571 15.8741 52.9213 15.9352C52.5012 15.3834 51.9427 14.8414 51.2466 14.5587C49.4875 13.841 58.6877 10.0742 58.6877 10.0742C58.8327 10.5267 59.0033 10.972 59.199 11.4084Z" fill="black"/>
<path d="M59.4575 9.50654C59.4578 10.7401 59.056 11.946 58.3029 12.9718C57.5498 13.9976 56.4792 14.7972 55.2266 15.2694C53.9739 15.7416 52.5954 15.8653 51.2655 15.6248C49.9356 15.3843 48.714 14.7903 47.7551 13.9181C46.7962 13.0459 46.1432 11.9346 45.8787 10.7248C45.6141 9.51497 45.7499 8.26093 46.2689 7.12129C46.7878 5.98166 47.6666 5.00762 48.7941 4.32238C49.9215 3.63713 51.2471 3.27146 52.603 3.27161C53.5043 3.26782 54.3974 3.4265 55.2308 3.73848C56.0643 4.05046 56.8215 4.50957 57.4588 5.08928C58.0962 5.66899 58.6009 6.35783 58.944 7.116C59.287 7.87417 59.4615 8.68666 59.4575 9.50654Z" fill="#DFEDFF"/>
<path d="M60.4469 18.2427L58.5775 22.2109L56.9286 24.8447H51.6502L50.1106 21.2437L50.7346 17.5092H54.7658L57.3686 17.3758L58.2477 17.1089L58.8145 17.4014L60.4469 18.2427Z" fill="#575A89"/>
<path opacity="0.1" d="M59.803 12.9531C59.803 12.9531 60.9689 13.1792 59.9248 13.9579C58.8807 14.7366 55.2787 17.213 55.2787 17.213C55.2787 17.213 56.544 18.2382 56.2822 19.439L60.4742 17.3132L61.22 13.912C61.22 13.912 61.3037 12.8898 59.803 12.9531Z" fill="black"/>
<path opacity="0.1" d="M56.1033 17.213L53.4368 17.6132C53.4368 17.6132 53.987 19.4639 53.7119 19.9893C53.7035 20.0056 53.6966 20.0225 53.6911 20.0398L52.6031 22.7152L53.4185 24.8161L56.2408 21.3145L55.2788 19.9893C55.2788 19.9893 56.2955 18.7636 56.9004 18.3384C57.5053 17.9133 56.1033 17.213 56.1033 17.213Z" fill="black"/>
<path d="M56.1033 17.1097L53.4368 17.5092C53.4368 17.5092 53.987 19.3599 53.7119 19.8853C53.7035 19.9016 53.6966 19.9185 53.6911 19.9358L52.6031 22.6111L53.4185 24.7121L56.2408 21.2083L55.2788 19.883C55.2788 19.883 56.2955 18.6573 56.9004 18.2321C57.5053 17.807 56.1033 17.1097 56.1033 17.1097Z" fill="#DCE6F2"/>
<path d="M59.9149 12.7533C59.9149 12.7533 61.0808 12.9795 60.0359 13.7582C58.991 14.5369 55.2787 17.213 55.2787 17.213C55.2787 17.213 56.6534 18.0384 56.3924 19.2385L60.5844 17.1135L61.3302 13.7122C61.3302 13.7122 61.413 12.69 59.9149 12.7533Z" fill="#575A89"/>
<path opacity="0.1" d="M53.1044 16.1711C53.1044 16.1711 53.3588 16.6038 54.4816 17.3841C54.4816 17.3841 52.6122 18.2887 53.3273 19.5604L50.4677 18.8819L50.0277 17.6313L53.1044 16.1711Z" fill="black"/>
<path d="M52.9942 16.0717C52.9942 16.0717 53.2486 16.5044 54.3714 17.2846C54.3714 17.2846 52.502 18.1846 53.2171 19.4601L50.3583 18.7817L49.9183 17.5318L52.9942 16.0717Z" fill="#575A89"/>
<path opacity="0.1" d="M60.4469 18.2427L58.5775 22.2109L56.9319 24.8447H51.6502L50.1106 21.2437L50.7337 17.5092H51.8549C51.8366 18.3807 52.1863 19.4044 52.1639 19.785C52.1258 20.4107 53.1898 23.7864 53.1898 23.7864C53.1898 23.7864 55.4163 20.5102 56.2955 20.2185C56.8482 20.0353 58.019 18.5111 58.8137 17.4014L60.4469 18.2427Z" fill="black"/>
<path d="M67.8109 39.1245L67.6211 39.3416C67.6211 39.3416 68.9958 45.6188 68.6155 47.0443C68.5508 47.3012 68.5139 47.5633 68.5053 47.8267V47.838C68.4382 49.2884 68.9196 51.1707 68.9196 51.1707C68.9196 51.1707 69.3041 56.7189 69.0853 59.0008H43.3464C43.1956 55.6266 43.0332 51.2552 43.1807 50.7704C43.4293 49.9706 43.9265 47.0691 43.9265 47.0691L43.9811 45.6942C43.9811 45.6942 43.9811 44.3652 44.0259 42.8846C44.0449 42.219 44.0731 41.5202 44.1137 40.9005C44.1659 40.1211 44.2388 39.4645 44.3391 39.1419C44.4009 38.8973 44.4364 38.6479 44.4452 38.3971C44.4452 38.3737 44.4452 38.3496 44.4501 38.3255C44.4501 38.2501 44.4584 38.1687 44.4617 38.085C44.4617 38.0616 44.4617 38.0383 44.4617 38.0096C44.4775 37.5241 44.4717 36.9482 44.4543 36.3512C44.4543 36.3188 44.4543 36.2856 44.4543 36.2524C44.4402 35.8047 44.4195 35.3478 44.3963 34.9136C44.3242 33.5567 44.2306 32.4094 44.2306 32.4094L41.0693 22.881L41.9212 20.9723L44.2852 19.6546L48.6563 17.2537C50.7883 15.6593 52.192 15.8508 52.7273 16.0257C52.7793 16.0418 52.8302 16.0607 52.8798 16.0822C52.8964 16.0897 52.9096 16.0958 52.9221 16.1026C52.9391 16.1099 52.9554 16.1185 52.9709 16.1282C52.8244 16.1923 52.697 16.2878 52.5997 16.4064C52.4901 16.5413 52.412 16.6952 52.3702 16.8587C52.3422 16.96 52.3225 17.063 52.3114 17.167C52.3006 17.2763 52.2964 17.3893 52.2964 17.5032C52.3024 17.7528 52.3259 18.0018 52.3669 18.2487C52.3669 18.2532 52.3669 18.2593 52.3669 18.2653C52.3942 18.4417 52.4282 18.6143 52.4613 18.7764C52.461 18.7791 52.461 18.7819 52.4613 18.7847C52.4995 18.9739 52.5376 19.1488 52.5633 19.2996C52.5682 19.3267 52.5724 19.3516 52.5765 19.3749C52.5948 19.4746 52.6034 19.5755 52.6022 19.6765C52.6115 19.9204 52.6476 20.1628 52.7099 20.4001C52.7315 20.4997 52.7563 20.6059 52.7837 20.7168C52.821 20.8675 52.8616 21.0319 52.9055 21.1992C52.9295 21.2912 52.9552 21.3862 52.9817 21.4804C52.9917 21.5181 53.0024 21.5558 53.0124 21.5942L53.029 21.6538C53.2055 22.2923 53.3969 22.9277 53.5145 23.3122C53.5841 23.5383 53.6281 23.6778 53.6281 23.6778C53.6281 23.6778 54.876 21.8422 55.872 20.7974C55.8869 20.7823 55.9002 20.768 55.9142 20.7544C56.0128 20.6512 56.1098 20.5569 56.2026 20.474C56.4056 20.2901 56.5879 20.1589 56.7346 20.1107C56.7659 20.1002 56.7961 20.0874 56.8249 20.0722C57.2326 19.8619 57.8905 19.0983 58.5062 18.2985C58.5667 18.2231 58.6255 18.1409 58.6852 18.0633C58.8219 17.8839 58.9545 17.7037 59.0796 17.5311C59.1757 17.3991 59.2677 17.271 59.3547 17.1489C59.769 16.5624 60.0607 16.1252 60.0607 16.1252L60.6358 16.1018L60.736 16.0973H60.8032L63.4142 15.9872C63.4142 15.9872 63.5269 16.0046 63.7125 16.0385C63.7224 16.0385 63.7324 16.0385 63.7431 16.0445C64.6695 16.2119 67.2433 16.7418 67.4007 17.4768C67.593 18.3769 71.7444 19.5777 71.7444 19.5777C71.7991 20.1808 72.8158 20.5781 72.8158 20.5781C72.8158 20.5781 74.3554 24.2794 73.9436 25.7297C73.5367 27.162 75.0026 30.705 75.0415 30.8045L74.7606 31.1271L67.8109 39.1245Z" fill="#E8F5FF"/>
<path opacity="0.1" d="M59.8022 12.69C59.8022 12.69 62.3436 12.0341 62.9212 13.3842C63.4987 14.7343 64.7906 20.1868 64.7906 20.1868C64.7906 20.1868 61.4363 20.762 60.5571 20.1868C60.0414 19.8454 59.4031 19.6936 58.7698 19.7616L56.873 20.9369L56.3129 20.7861C56.3129 20.7861 59.3473 16.6822 60.0069 15.2877C60.6665 13.8931 60.8894 13.2697 59.8022 12.69Z" fill="black"/>
<path d="M59.692 12.3884C59.692 12.3884 62.235 11.7326 62.8151 13.0827C63.3951 14.4328 64.6845 19.8853 64.6845 19.8853C64.6845 19.8853 61.331 20.4605 60.451 19.8853C59.9356 19.5439 59.2976 19.3921 58.6645 19.4601L56.7661 20.6353L56.2059 20.4846C56.2059 20.4846 59.2404 16.3807 59.9 14.9861C60.5596 13.5916 60.7791 12.9696 59.692 12.3884Z" fill="#E8F5FF"/>
<path opacity="0.1" d="M42.633 34.1402C42.633 34.1402 44.5298 34.5654 44.8877 35.5408C45.2457 36.5163 43.4857 36.5411 43.4857 36.5411C43.4857 36.5411 42.4135 34.8156 42.633 34.1402Z" fill="black"/>
<path opacity="0.1" d="M49.698 41.3423C49.698 41.3423 45.0527 49.9955 46.1249 50.8209C47.1972 51.6464 49.698 41.3423 49.698 41.3423Z" fill="black"/>
<path opacity="0.1" d="M56.1033 34.9656C56.1033 34.9656 59.8147 43.3708 59.0723 44.6689C58.3298 45.967 60.6665 44.6689 60.6665 44.6689L56.1033 34.9656Z" fill="black"/>
<path d="M61.2713 43.2683C61.2713 43.2683 48.7358 43.8186 52.3926 47.3699C56.0493 50.9212 63.5534 47.5207 63.5534 47.5207L61.2713 43.2683Z" fill="#DFEDFF"/>
<path opacity="0.1" d="M59.4575 9.50655C59.4587 10.3245 59.2821 11.1345 58.938 11.8902C58.8228 11.9022 58.7076 11.9098 58.5966 11.9143C58.4309 11.5834 58.5195 11.2012 58.5229 10.8371C58.5262 10.473 58.3787 10.0448 57.9934 9.94679C57.2252 9.75004 56.6949 11.0564 55.9375 10.8205C55.3575 10.6411 55.5091 9.8405 55.1752 9.3784C54.9109 9.01279 54.3814 8.90952 53.9695 8.68035C53.0937 8.19112 53.1202 7.40864 52.7133 6.66838C52.2874 5.89269 51.3875 6.12186 50.6061 6.57943C50.0128 6.9277 49.5007 7.39432 48.866 7.67173C48.3166 7.91295 47.6993 8.0004 47.0902 8.01322C46.7153 8.02643 46.3402 7.99038 45.9766 7.90617C46.4043 6.44328 47.4023 5.17186 48.7845 4.329C50.1666 3.48614 51.8386 3.12939 53.4886 3.32528C55.1385 3.52117 56.6539 4.25632 57.752 5.39363C58.8501 6.53095 59.456 7.9928 59.4567 9.50655H59.4575Z" fill="black"/>
<path d="M50.6086 6.37968C50.0145 6.72795 49.5032 7.19382 48.8685 7.47274C48.3191 7.71321 47.7018 7.80065 47.0927 7.81347C46.347 7.82854 45.544 7.70944 45.0344 7.21945C44.5662 6.76715 44.4544 6.07137 44.6524 5.4781C44.8505 4.88484 45.3253 4.39259 45.8829 4.03603C46.4406 3.67947 47.0878 3.43296 47.4573 2.92262C47.6529 2.65275 47.7473 2.33463 47.9098 2.04742C48.4293 1.12851 49.5977 0.630977 50.7271 0.569163C51.8565 0.507349 52.976 0.813404 54.0516 1.14509C55.1271 1.47677 56.211 1.84163 57.3462 1.91023C57.8517 1.93887 58.377 1.91023 58.846 2.08436C59.4766 2.31729 59.8901 2.87437 60.1718 3.44125C60.4875 4.0805 60.6839 4.77855 60.6508 5.4766C60.5812 6.96692 59.499 8.42935 59.9746 9.8571C60.1006 10.2378 60.3367 10.6283 60.2108 11.009C60.0268 11.5645 59.2388 11.6912 58.6016 11.7176C58.4359 11.3866 58.5245 11.0037 58.5278 10.6403C58.5311 10.277 58.3836 9.84805 57.9992 9.75006C57.2302 9.55482 56.6999 10.8589 55.9442 10.6237C55.3683 10.4436 55.5174 9.64377 55.1826 9.18167C54.9183 8.81531 54.388 8.71279 53.977 8.48362C53.1011 7.99439 53.1276 7.21191 52.7208 6.47165C52.2916 5.69219 51.3908 5.92135 50.6086 6.37968Z" fill="black"/>
<path d="M38.4534 35.0652L37.8211 35.2657C37.8211 35.2657 38.0697 38.667 37.2411 39.6424C36.4125 40.6179 39.9623 43.043 39.9623 43.043C39.9623 43.043 44.828 43.0181 44.9656 42.666C45.1031 42.314 44.717 36.364 44.717 36.364C44.717 36.364 42.1052 35.4383 42.3247 33.9631C42.3247 33.9631 41.5276 37.439 40.346 37.289C39.1644 37.139 37.8228 36.2411 38.4534 35.0652Z" fill="#E8F5FF"/>
<path opacity="0.1" d="M40.5623 38.3413C41.4835 38.3413 42.2304 37.7199 42.2304 36.9535C42.2304 36.187 41.4835 35.5657 40.5623 35.5657C39.6411 35.5657 38.8943 36.187 38.8943 36.9535C38.8943 37.7199 39.6411 38.3413 40.5623 38.3413Z" fill="black"/>
<path d="M42.3861 35.1654C42.3861 35.1654 42.0547 25.9627 39.1694 28.0131C36.2841 30.0635 36.2559 32.5157 36.8053 33.2401C37.3547 33.9646 39.1163 37.5912 39.1163 37.5912C39.3919 37.7365 39.7014 37.8204 40.0194 37.8359C40.3375 37.8514 40.655 37.7981 40.946 37.6804C41.2371 37.5627 41.4934 37.384 41.6938 37.1588C41.8943 36.9337 42.0333 36.6685 42.0994 36.3851L42.3861 35.1654Z" fill="#DFEDFF"/>
<path opacity="0.1" d="M60.3847 11.8548C60.3713 11.8143 60.3454 11.7782 60.3101 11.7507C60.1676 11.6324 59.861 11.5909 59.3986 11.6271L59.4177 11.8261C60.0342 11.7779 60.156 11.8894 60.1717 11.9083V11.9271L60.1908 11.952C60.2677 12.046 60.3221 12.1535 60.3507 12.2678C60.3792 12.382 60.3812 12.5004 60.3565 12.6154C60.2215 13.2297 59.392 13.719 59.3837 13.7243L59.3638 13.7348L59.3514 13.7521C58.9934 14.2353 56.9691 15.599 56.4396 15.9518L56.3932 15.9036C56.1562 16.0905 54.073 17.7497 53.9603 18.3852C53.8874 18.784 53.3936 18.9385 53.2146 18.9815C53.0256 18.851 52.4125 18.407 52.0934 17.9095C51.7943 17.4414 52.9983 16.5277 53.1044 16.1712L52.9386 16.0166C52.9212 16.0739 51.375 17.3886 51.8051 18.0603C52.1498 18.5993 52.7795 19.0606 53 19.2129C52.9295 19.7948 52.4912 23.212 51.8175 24.0216C50.9806 25.0279 50.2771 30.0997 50.355 31.8704C50.4237 33.4437 49.9721 36.4153 48.464 37.6915C48.2029 37.9221 47.888 38.0962 47.5426 38.2006C47.1973 38.305 46.8304 38.3371 46.4695 38.2946H46.4513H46.4331C46.4115 38.2946 44.2239 38.4981 42.386 37.0885C40.8821 35.9374 40.0302 34.0588 39.8529 31.5033H39.8165L39.8015 30.7593C40.2093 30.7014 40.5766 30.502 40.8261 30.2029C41.0756 29.9039 41.188 29.5284 41.1397 29.1556C41.0914 28.7827 40.886 28.4414 40.5669 28.2033C40.2477 27.9653 39.8395 27.8491 39.4281 27.879C39.0167 27.909 38.6341 28.0829 38.3607 28.3642C38.0873 28.6454 37.9443 29.0121 37.9619 29.3872C37.9794 29.7624 38.1561 30.1167 38.4548 30.3758C38.7535 30.6349 39.151 30.7786 39.5637 30.7766H39.582L39.5969 31.5161L39.5239 31.5207C39.7062 34.1591 40.6012 36.1107 42.1756 37.3161C43.3722 38.2182 44.9008 38.6733 46.4521 38.5893C46.5622 38.6003 46.6728 38.6058 46.7836 38.6059C47.4947 38.6092 48.1789 38.3589 48.6894 37.9086C50.2779 36.563 50.761 33.4821 50.6856 31.8554C50.6027 29.9791 51.341 25.0897 52.0818 24.1995C52.8077 23.3258 53.2477 19.9215 53.3248 19.2619C53.5875 19.1948 54.1816 18.983 54.2827 18.4327C54.3556 18.0347 55.7469 16.8082 56.6028 16.129L56.5772 16.1018C57.0379 15.7958 58.4706 14.8309 59.1807 14.2112C59.4011 14.019 59.6199 13.8268 59.8486 13.6436C60.1237 13.422 60.4734 13.0699 60.5653 12.6538C60.5967 12.5165 60.5969 12.3747 60.5658 12.2373C60.5347 12.0999 60.4731 11.9697 60.3847 11.8548Z" fill="black"/>
<path d="M52.9718 19.1654C52.937 19.1435 52.1117 18.606 51.6982 17.9593C51.2689 17.2876 52.8152 15.9737 52.8317 15.9164L52.9975 16.0709C52.8922 16.4267 51.6882 17.3411 51.9874 17.8085C52.3644 18.3987 53.1582 18.9151 53.1665 18.9204L52.9718 19.1654Z" fill="#353146"/>
<path d="M56.3319 16.098L56.2026 15.936C56.2292 15.9186 58.8319 14.2059 59.2421 13.6519L59.2553 13.6353L59.2744 13.624C59.2827 13.6187 60.1121 13.1302 60.2472 12.5151C60.2721 12.4002 60.2702 12.2819 60.2417 12.1678C60.2131 12.0536 60.1585 11.9462 60.0815 11.8525L60.0624 11.8268V11.8087C60.0458 11.7891 59.924 11.6783 59.3075 11.7266L59.2885 11.5268C59.7517 11.4906 60.0574 11.5321 60.1999 11.6504C60.2354 11.6782 60.2616 11.7145 60.2754 11.7552C60.365 11.8698 60.4278 11.9999 60.46 12.1375C60.4922 12.2751 60.4931 12.4172 60.4626 12.555C60.3706 12.9719 60.0218 13.3239 59.7459 13.5448C59.518 13.728 59.2984 13.9217 59.0788 14.1125C58.246 14.8384 56.4231 16.0385 56.3319 16.098Z" fill="#E8F5FF"/>
<path d="M39.6946 30.4968L39.4751 30.5005L39.4996 31.7147L39.7191 31.711L39.6946 30.4968Z" fill="#E8F5FF"/>
<path d="M39.4569 30.4336C40.1923 30.4336 40.7885 29.8912 40.7885 29.2222C40.7885 28.5532 40.1923 28.0108 39.4569 28.0108C38.7214 28.0108 38.1252 28.5532 38.1252 29.2222C38.1252 29.8912 38.7214 30.4336 39.4569 30.4336Z" fill="#E8F5FF"/>
<path d="M46.6792 38.5086C46.5685 38.5088 46.4578 38.5035 46.3477 38.4928C44.7965 38.5759 43.2683 38.1209 42.0712 37.2196C40.4968 36.0134 39.6035 34.064 39.4196 31.4234L39.751 31.4045C39.9283 33.96 40.7802 35.8393 42.285 36.9896C44.1229 38.3955 46.3096 38.1958 46.3312 38.1958H46.3494H46.3676C46.7286 38.2381 47.0955 38.2059 47.441 38.1015C47.7864 37.9971 48.1016 37.8232 48.363 37.5927C49.8702 36.3165 50.3218 33.3449 50.2531 31.7716C50.1702 29.9994 50.8737 24.9276 51.7115 23.922C52.4448 23.0408 52.8997 19.0689 52.9047 19.0289L52.9171 18.9158L53.0398 18.8962C53.0472 18.8962 53.7631 18.7726 53.8526 18.2856C53.9686 17.6509 56.0485 15.9917 56.2847 15.804L56.5009 16.0302C55.6416 16.7086 54.2504 17.9358 54.1808 18.3346C54.0797 18.8864 53.4856 19.0975 53.2237 19.1638C53.1408 19.8242 52.7042 23.2277 51.9808 24.1014C51.24 24.9917 50.5017 29.881 50.5845 31.7573C50.6558 33.3841 50.1777 36.4657 48.5892 37.8106C48.0777 38.262 47.3918 38.5127 46.6792 38.5086Z" fill="#353146"/>
<g opacity="0.1">
<path d="M60.1635 7.72448C60.2993 7.26766 60.4634 6.80782 60.5778 6.34497C60.441 6.81008 60.2761 7.26766 60.1635 7.72448Z" fill="black"/>
<path d="M58.7772 11.3142C58.6115 10.9833 58.7001 10.6003 58.7034 10.237C58.7068 9.87364 58.5593 9.44848 58.1748 9.34671C57.4058 9.15147 56.8755 10.4563 56.1198 10.2204C55.5397 10.0402 55.693 9.24042 55.3583 8.77832C55.0939 8.41196 54.5644 8.30944 54.1534 8.08028C53.2767 7.59104 53.3033 6.80857 52.8972 6.0683C52.4705 5.29186 51.5714 5.52102 50.7892 5.97935C50.1951 6.32762 49.6838 6.79424 49.0491 7.07241C48.4997 7.31288 47.8824 7.40032 47.2733 7.41314C46.5317 7.42897 45.7246 7.30911 45.215 6.81912C44.8222 6.4422 44.6805 5.88965 44.7617 5.37177C44.7477 5.4072 44.7352 5.44263 44.7228 5.47806C44.5239 6.07132 44.6399 6.76861 45.1048 7.2194C45.6144 7.70939 46.4215 7.8285 47.1631 7.81342C47.773 7.8006 48.3895 7.71316 48.9397 7.47269C49.5761 7.19377 50.0873 6.7279 50.6798 6.37964C51.462 5.92131 52.3619 5.69214 52.7879 6.46859C53.1939 7.20885 53.1682 7.99132 54.0441 8.48056C54.4584 8.70671 54.9846 8.81224 55.2497 9.17861C55.5812 9.64221 55.4345 10.4405 56.0112 10.6207C56.7661 10.8559 57.2964 9.55175 58.0654 9.74699C58.4499 9.84499 58.5982 10.2747 58.5941 10.6373C58.5899 10.9999 58.5037 11.3836 58.6678 11.7145C59.305 11.6881 60.0931 11.5637 60.2778 11.0059C60.3033 10.9258 60.315 10.8427 60.3126 10.7594C60.0433 11.1823 59.3506 11.2908 58.7772 11.3142Z" fill="black"/>
</g>
<path opacity="0.1" d="M73.7531 29.8886L74.7151 30.8143C74.7151 30.8143 75.4849 35.9155 75.8694 36.3927C76.2539 36.8698 77.162 38.768 76.3094 40.1935C76.3094 40.1935 76.0343 40.9692 76.1992 41.2941C76.3641 41.619 74.9629 43.245 74.9629 43.245C74.9629 43.245 73.1208 44.7451 72.7355 44.9705C72.3502 45.1959 70.3167 46.996 69.6298 47.0209C68.9429 47.0458 68.7183 47.8215 68.7183 47.8215L64.842 47.9466C64.842 47.9466 62.7008 47.8448 62.2351 48.12C62.2351 48.12 62.4837 45.1439 60.0914 43.193L63.1424 42.1926C63.1424 42.1926 64.2976 41.7403 64.6547 41.2677C64.8794 40.9779 65.1981 40.7594 65.5662 40.6428C65.5662 40.6428 66.418 40.0925 66.4454 39.7924C66.4727 39.4924 67.487 39.1245 67.487 39.1245L66.9127 34.6656L67.2152 27.263C67.2152 27.263 68.1772 21.0605 70.2115 21.411C72.2458 21.7616 73.7531 29.8886 73.7531 29.8886Z" fill="black"/>
<path d="M74.0845 29.8886L75.0465 30.8143C75.0465 30.8143 75.8163 35.9155 76.2008 36.3927C76.5853 36.8698 77.4935 38.768 76.6408 40.1935C76.6408 40.1935 76.3665 40.9692 76.5314 41.2941C76.6963 41.619 75.2943 43.245 75.2943 43.245C75.2943 43.245 73.4522 44.7451 73.0669 44.9705C72.6816 45.1959 70.6481 46.996 69.9612 47.0209C69.2743 47.0458 69.0497 47.8215 69.0497 47.8215L65.1734 47.9466C65.1734 47.9466 63.0306 47.8448 62.5665 48.12C62.5665 48.12 62.8151 45.1439 60.4229 43.193L63.4739 42.1926C63.4739 42.1926 64.629 41.7403 64.9861 41.2677C65.2108 40.9779 65.5295 40.7594 65.8976 40.6428C65.8976 40.6428 66.7494 40.0925 66.7768 39.7924C66.8041 39.4924 67.8184 39.1245 67.8184 39.1245L67.2441 34.6656L67.5466 27.263C67.5466 27.263 68.5086 21.0605 70.5429 21.411C72.5772 21.7616 74.0845 29.8886 74.0845 29.8886Z" fill="#E8F5FF"/>
<path opacity="0.1" d="M70.5082 37.3666C70.5082 37.3666 73.3396 36.6882 74.0821 37.5174C74.8245 38.3466 70.5082 37.3666 70.5082 37.3666Z" fill="black"/>
<path opacity="0.1" d="M69.8485 38.5042C70.8106 39.117 73.7795 39.1419 73.7795 39.1419L69.8485 38.5042Z" fill="black"/>
<path opacity="0.1" d="M71.3053 41.5677C71.3882 41.5926 73.3462 43.4937 74.1682 42.9185C74.9902 42.3434 71.3053 41.5677 71.3053 41.5677Z" fill="black"/>
<path opacity="0.1" d="M44.9349 25.6121C44.9349 25.6121 45.51 29.2139 45.2266 30.6809C44.9432 32.1478 45.9774 33.9653 45.9774 33.9653L44.9349 25.6121Z" fill="black"/>
<path d="M32.2038 27.0768C31.5409 27.5495 31.057 28.6681 30.7065 29.8976C30.095 32.0423 29.8953 34.5292 29.8953 34.5292C29.8953 34.5292 24.6169 33.4286 25.0014 32.9288C25.2433 32.6145 24.9185 30.2459 24.6476 28.5287C24.486 27.514 24.3418 26.7263 24.3418 26.7263C24.3418 26.7263 34.0185 25.7757 32.2038 27.0768Z" fill="white"/>
<path opacity="0.1" d="M32.2038 26.9766C31.5409 27.45 31.057 28.5679 30.7065 29.7974C29.6548 30.0879 28.5364 30.1141 27.4697 29.8732C26.403 29.6324 25.4278 29.1334 24.6476 28.4292C24.486 27.4138 24.3418 26.626 24.3418 26.626C24.3418 26.626 34.0185 25.6762 32.2038 26.9766Z" fill="black"/>
<path d="M35.0411 24.2823C35.0417 25.5935 34.5323 26.8626 33.6033 27.8649C32.6742 28.8673 31.3853 29.5383 29.9646 29.7592C28.544 29.9802 27.0832 29.7368 25.8409 29.0721C24.5985 28.4075 23.6547 27.3644 23.1764 26.1276C22.6981 24.8907 22.7163 23.5398 23.2276 22.314C23.7389 21.0881 24.7104 20.0663 25.9702 19.4295C27.23 18.7926 28.6969 18.5817 30.1112 18.8341C31.5255 19.0866 32.796 19.786 33.6979 20.8087C34.5671 21.7938 35.0409 23.0192 35.0411 24.2823Z" fill="white"/>
<path opacity="0.1" d="M39.8538 59.0007H38.1137L37.967 56.2048L37.8137 53.3108C37.8137 53.3108 38.209 53.2573 38.8387 53.1774L39.0931 53.1465H39.1138C39.2514 53.7337 39.3873 54.3368 39.5182 54.9391C39.7361 56.0084 39.8495 57.0931 39.8571 58.1806C39.8571 58.2559 39.8571 58.3313 39.8571 58.4022C39.8621 58.6035 39.8571 58.8047 39.8538 59.0007Z" fill="black"/>
<path d="M39.5198 59.0008H17.697C17.7915 58.8055 17.8545 58.6872 17.8545 58.6872C17.8545 58.6872 19.6004 51.7384 20.4878 48.7984C20.4881 48.7959 20.4881 48.7934 20.4878 48.7909C20.5987 48.3915 20.7326 47.9977 20.8889 47.6112C20.899 47.5849 20.9121 47.5596 20.9278 47.5358C21.367 46.886 21.9172 46.1857 21.1474 45.1853C20.3776 44.185 20.6503 39.7834 20.6503 39.7834C20.6503 39.7834 21.585 36.0316 22.5743 34.0309C22.7245 33.721 22.9376 33.4397 23.2024 33.2017C23.2885 33.1251 23.3805 33.054 23.4775 32.9891C23.5513 32.9387 23.6282 32.8921 23.7079 32.8497L23.7236 32.8406C24.1393 32.6262 24.6008 32.4959 25.0768 32.4584C25.4149 32.4263 25.7562 32.4349 26.0919 32.4841C27.6961 32.6981 28.9805 33.0562 30.0013 33.464C32.7681 34.5699 33.6059 36.0519 33.6225 36.0828L33.6291 36.0957C33.7401 36.3316 35.3642 39.7811 35.9493 41.3906C36.1009 41.8097 36.1838 42.1044 36.1506 42.1851C35.9849 42.5846 37.4151 47.5863 37.4151 47.5863C37.4151 47.5863 38.078 49.9985 38.7409 52.8262C38.7699 52.9438 38.7973 53.0613 38.8238 53.1805C38.9423 53.6938 39.0599 54.217 39.1735 54.7394C39.3934 55.816 39.5068 56.9084 39.5124 58.0035C39.5245 58.3447 39.527 58.6771 39.5198 59.0008Z" fill="white"/>
<path opacity="0.1" d="M24.9468 30.7382C24.9468 30.7382 23.4412 30.2105 23.4594 31.0111C23.4776 31.8116 23.8265 32.1946 23.7163 32.3114C23.6061 32.4283 23.771 33.1286 23.771 33.1286C23.771 33.1286 25.8052 33.1286 26.7399 33.5115C27.6746 33.8945 31.1201 34.6619 31.5601 34.8956C32.0001 35.1293 33.6317 36.1771 33.6317 36.1771L33.7783 34.193C33.7783 34.193 32.0921 32.9258 29.3253 32.276C26.5585 31.6262 24.9468 30.7382 24.9468 30.7382Z" fill="black"/>
<path d="M24.9468 30.6379C24.9468 30.6379 23.4412 30.1102 23.4594 30.9108C23.4776 31.7114 23.8265 32.0943 23.7163 32.2112C23.6061 32.328 23.771 33.0283 23.771 33.0283C23.771 33.0283 25.8052 33.0283 26.7399 33.412C27.6746 33.7957 31.1201 34.5624 31.5601 34.7953C32.0001 35.0282 33.6317 36.0768 33.6317 36.0768L33.78 34.0987C33.78 34.0987 32.0937 32.8316 29.3269 32.1818C26.5601 31.532 24.9468 30.6379 24.9468 30.6379Z" fill="white"/>
<path opacity="0.1" d="M29.4918 35.4127C29.4918 35.4127 32.3688 38.2463 32.2222 39.031C32.0755 39.8158 29.4918 35.4127 29.4918 35.4127Z" fill="black"/>
<path opacity="0.1" d="M24.8183 45.6489C24.8183 45.6489 22.7095 47.4167 22.088 47.5169C21.4665 47.6172 22.5644 47.9504 23.2787 47.6843C23.993 47.4182 25.516 46.7179 25.516 46.7179L24.8183 45.6489Z" fill="black"/>
<path d="M40.3767 59.0008H35.4588C34.771 58.458 34.1206 57.9552 33.7062 57.6529C33.0433 57.169 32.5652 56.4566 32.2603 55.8837C32.1915 55.7533 32.1318 55.6312 32.0813 55.5203C31.9908 55.3295 31.9111 55.1345 31.8427 54.9361L35.4845 52.9686C35.6857 53.1243 35.8749 53.2926 36.0504 53.4722L36.0944 53.5182C36.2965 53.7353 36.4747 53.9818 36.4904 54.1838C36.5087 54.419 37.2279 55.3289 37.9629 56.2026C38.7087 57.0913 39.4727 57.9409 39.5232 57.9982C39.5232 57.9982 39.6492 58.1542 39.8547 58.3939C39.9997 58.5673 40.1787 58.7754 40.3767 59.0008Z" fill="white"/>
<path opacity="0.1" d="M33.6979 20.8087C33.5231 21.1676 33.3664 21.54 33.3432 21.9395C33.2778 23.0928 33.3839 25.6717 31.9802 26.2506C31.2849 26.5356 30.5408 25.9099 29.7785 25.8948C29.2299 25.8843 28.7269 26.2009 28.3922 26.5966C28.0574 26.9924 27.8494 27.462 27.6066 27.9098C27.3856 28.3162 27.1311 28.7068 26.8451 29.0783C26.7597 29.1919 26.6655 29.3 26.5634 29.4016C25.7075 29.0731 24.9453 28.5711 24.3349 27.934C23.7245 27.2968 23.2821 26.5414 23.0413 25.7251C22.8005 24.9089 22.7676 24.0534 22.9453 23.2238C23.123 22.3943 23.5064 21.6126 24.0665 20.9383C24.6265 20.264 25.3484 19.7149 26.1771 19.3328C27.0057 18.9508 27.9193 18.7458 28.8482 18.7336C29.7771 18.7214 30.6968 18.9023 31.5373 19.2624C32.3777 19.6225 33.1167 20.1524 33.6979 20.8118V20.8087Z" fill="black"/>
<path d="M33.2331 21.7359C33.1668 22.8893 33.2737 25.4682 31.8691 26.0463C31.1739 26.3313 30.4298 25.7064 29.6675 25.6913C29.1189 25.68 28.6168 25.9973 28.2812 26.3924C27.9456 26.7874 27.7392 27.2578 27.4956 27.7063C27.2745 28.1127 27.02 28.5033 26.7341 28.8747C26.5634 29.0948 26.3745 29.3157 26.1118 29.4393C25.6544 29.6564 25.1001 29.5343 24.6095 29.3949C23.9731 29.2124 23.3461 29.0069 22.7285 28.7782C22.7427 28.6934 22.7499 28.6077 22.7501 28.5219C22.7318 28.5536 22.7119 28.583 22.6921 28.6146L22.6531 28.6765C22.5827 28.7895 22.5139 28.9026 22.4509 29.0187C22.4269 29.0632 22.4037 29.1092 22.383 29.1551C22.2996 29.3263 22.2473 29.5085 22.228 29.6949C22.1858 30.1977 22.4584 30.6749 22.7003 31.1272C23.6309 32.8768 24.206 34.9227 23.5058 36.7583C23.2025 37.5566 22.6771 38.2659 22.2935 39.0371C21.6228 40.403 21.4254 41.9223 21.7275 43.3927C21.9189 44.3064 22.3026 45.211 22.2081 46.1374C22.0424 47.7318 20.531 48.9183 19.0171 49.7339C18.1992 50.1727 17.1982 50.5632 16.3298 50.2164C16.8834 49.6284 17.0259 48.815 17.1452 48.0476C17.4717 45.9545 17.799 43.8604 18.1271 41.7652C18.2581 40.9315 18.3887 40.0977 18.5191 39.264C18.7627 37.6975 19.0096 36.1137 18.8572 34.5375C18.7461 33.3758 18.4329 32.1426 18.9864 31.091C19.2789 30.5339 19.8001 30.0726 19.9625 29.4725C20.096 28.9848 19.9717 28.4661 20.0595 27.9694C20.1076 27.7434 20.189 27.5243 20.3015 27.3181C20.4447 27.0382 20.6317 26.7787 20.8566 26.5476C20.6346 26.4888 20.4274 26.4082 20.3015 26.2393C20.6578 26.0283 20.7116 25.5526 20.55 25.1953C20.3885 24.838 20.0653 24.5658 19.7744 24.2839C19.4836 24.002 19.2035 23.6733 19.1671 23.2888C19.0966 22.5569 19.9004 21.99 20.0421 21.2678C20.1855 20.5328 19.6187 19.8182 19.6642 19.0742C19.7173 18.1749 20.6255 17.5213 21.522 17.1421C22.875 16.5723 24.3696 16.3383 25.8541 16.4637C27.0623 16.5677 28.2314 16.9077 29.4363 17.0396C30.163 17.115 30.8996 17.1225 31.6214 17.2386C32.3431 17.3547 33.0665 17.5997 33.5745 18.0814C34.9135 19.3516 33.3093 20.3971 33.2331 21.7359Z" fill="#001344"/>
<path opacity="0.1" d="M32.1127 55.8844C31.6901 55.7178 30.9211 55.8173 29.6011 55.4517C28.2811 55.0861 28.0267 53.4337 28.0267 53.4337V53.4284C28.011 53.3908 27.8883 53.145 27.058 52.2841C26.1407 51.3336 24.1578 46.5324 24.1578 46.5324C24.1578 46.5324 22.3995 44.8144 22.455 44.1812C22.5105 43.548 22.1426 41.8632 22.1791 39.9786C22.2155 38.094 26.1374 36.8442 26.1374 36.8442C33.6887 35.6268 31.9105 43.5465 31.7091 44.1465C31.5078 44.7466 32.5527 46.3673 32.5527 46.3673C32.4052 47.0729 33.1576 48.1652 33.1576 48.1652C33.1576 48.1652 33.3399 49.1316 33.3772 49.4987C33.3792 49.5157 33.3834 49.5324 33.3896 49.5485C33.5106 49.8945 34.4966 50.2081 34.8977 50.3988C35.3195 50.5993 36.6759 52.3497 36.6759 52.3497C36.9684 53.635 32.5336 56.0533 32.1127 55.8844Z" fill="black"/>
<path d="M32.3323 55.5829C31.9105 55.4155 31.1407 55.5158 29.8216 55.1494C28.5024 54.7831 28.2472 53.1322 28.2472 53.1322V53.1269C28.2323 53.0884 28.1088 52.8434 27.2785 51.9826C26.3612 51.032 24.3783 46.2301 24.3783 46.2301C24.3783 46.2301 22.6199 44.5129 22.6746 43.8797C22.7293 43.2464 22.3631 41.5616 22.3995 39.6786C22.436 37.7955 26.3554 36.5464 26.3554 36.5464C33.9067 35.329 32.1285 43.2487 31.9271 43.8487C31.7258 44.4488 32.7707 46.0695 32.7707 46.0695C32.6232 46.7751 33.3756 47.8674 33.3756 47.8674C33.3756 47.8674 33.5579 48.8338 33.596 49.2009C33.5974 49.2179 33.6013 49.2347 33.6076 49.2507C33.7286 49.5967 34.7146 49.9103 35.1165 50.101C35.5375 50.3008 36.8948 52.0519 36.8948 52.0519C37.1889 53.3349 32.7541 55.7532 32.3323 55.5829Z" fill="white"/>
<path opacity="0.1" d="M26.5045 40.6812C26.5045 40.6812 29.8033 43.8472 30.6642 43.8472C31.5252 43.8472 26.5045 40.6812 26.5045 40.6812Z" fill="black"/>
<path d="M32.3323 55.5829C31.9106 55.4155 31.1408 55.5158 29.8216 55.1494C28.5024 54.7831 28.2472 53.1322 28.2472 53.1322V53.1269C29.1214 52.5992 31.3355 51.1089 32.208 50.5639C32.8221 50.1817 33.3234 49.6201 33.6167 49.2477C33.7377 49.5937 34.7238 49.9073 35.1257 50.098C35.5466 50.2978 36.9039 52.0489 36.9039 52.0489C37.1889 53.3349 32.7541 55.7532 32.3323 55.5829Z" fill="white"/>
<g opacity="0.1">
<path d="M20.3064 26.2476C20.3105 26.2536 20.3163 26.2589 20.3213 26.2649C20.3462 26.2363 20.3719 26.2076 20.3984 26.1805C20.3701 26.2055 20.3393 26.2279 20.3064 26.2476Z" fill="black"/>
<path d="M22.2289 29.7032C22.2637 29.2848 22.5098 28.9162 22.7401 28.5483C22.5893 28.4955 22.4385 28.442 22.2893 28.3862C22.3035 28.3017 22.3107 28.2162 22.3109 28.1307C22.078 28.5076 21.8245 28.8785 21.7889 29.3029C21.7466 29.8064 22.0192 30.2829 22.2612 30.7352C23.1925 32.484 23.7668 34.5299 23.0666 36.3663C22.7625 37.1638 22.238 37.8739 21.8543 38.6451C21.1839 40.0108 20.9868 41.5298 21.2892 43C21.4789 43.9144 21.8634 44.8182 21.769 45.7447C21.6032 47.339 20.0926 48.5255 18.5779 49.3404C17.9589 49.6736 17.2355 49.9789 16.5436 49.9571C16.4796 50.0509 16.4081 50.1403 16.3298 50.2247C17.1991 50.5737 18.1992 50.181 19.0171 49.7407C20.5326 48.9266 22.0466 47.7431 22.2123 46.1457C22.3067 45.2192 21.9223 44.3154 21.7317 43.401C21.4292 41.931 21.6257 40.4121 22.2951 39.0461C22.6763 38.2757 23.2066 37.5649 23.5074 36.7673C24.2076 34.931 23.6326 32.8851 22.702 31.1362C22.4609 30.6809 22.1866 30.2067 22.2289 29.7032Z" fill="black"/>
<path d="M33.5728 18.0904C33.4913 18.0143 33.4038 17.9438 33.3109 17.8793C34.3152 19.0644 32.8651 20.0715 32.7931 21.347C32.7284 22.5003 32.8345 25.0799 31.43 25.6573C30.7356 25.9431 29.9906 25.3174 29.2291 25.3023C28.6797 25.2917 28.1776 25.6091 27.842 26.0041C27.5064 26.3991 27.3001 26.8695 27.0573 27.3173C26.8358 27.7236 26.581 28.1142 26.2949 28.4857C26.1292 28.7066 25.9353 28.9267 25.6718 29.0511C25.2161 29.2674 24.6617 29.1461 24.1703 29.0059C23.6925 28.8692 23.2191 28.7184 22.7501 28.5536C22.7491 28.6321 22.7419 28.7104 22.7285 28.788C23.3467 29.0172 23.9739 29.2227 24.6103 29.4046C25.1009 29.5449 25.6552 29.6662 26.1118 29.4499C26.3745 29.3255 26.5651 29.1046 26.7349 28.8837C27.0212 28.5128 27.2757 28.1224 27.4965 27.7161C27.7401 27.2683 27.9456 26.7971 28.282 26.4021C28.6184 26.0071 29.1197 25.6905 29.6683 25.7011C30.4306 25.7161 31.1756 26.3418 31.87 26.0561C33.2745 25.4787 33.1676 22.8991 33.2331 21.7457C33.3093 20.4047 34.9135 19.3599 33.5728 18.0904Z" fill="black"/>
</g>
<path opacity="0.1" d="M22.6539 28.6772C22.5835 28.7903 22.5147 28.9034 22.4517 29.0195C22.4277 29.0639 22.4045 29.1099 22.3838 29.1559C21.9496 28.7579 20.8922 27.8118 20.3022 27.5186C20.4457 27.2389 20.6327 26.9794 20.8574 26.7482C20.8574 26.7482 22.2636 27.4244 22.6539 28.6772Z" fill="black"/>
<path d="M22.6928 28.6154C22.3672 27.2743 20.8574 26.5484 20.8574 26.5484C20.6325 26.7795 20.4455 27.039 20.3022 27.3188C20.9245 27.6286 22.0714 28.6674 22.4517 29.0195L22.6928 28.6154Z" fill="white"/>
</g>
<defs>
<linearGradient id="paint0_linear_1327_415" x1="60.4925" y1="7.1923" x2="60.4925" y2="5.80676" gradientUnits="userSpaceOnUse">
<stop stop-color="#808080" stop-opacity="0.25"/>
<stop offset="0.54" stop-color="#808080" stop-opacity="0.12"/>
<stop offset="1" stop-color="#808080" stop-opacity="0.1"/>
</linearGradient>
<linearGradient id="paint1_linear_1327_415" x1="46.6378" y1="59.0007" x2="46.6378" y2="-1.26505e-05" gradientUnits="userSpaceOnUse">
<stop stop-color="#808080" stop-opacity="0.25"/>
<stop offset="0.54" stop-color="#808080" stop-opacity="0.12"/>
<stop offset="1" stop-color="#808080" stop-opacity="0.1"/>
</linearGradient>
<clipPath id="clip0_1327_415">
<rect width="90" height="59" fill="white"/>
</clipPath>
</defs>
</svg>
