<svg width="80" height="63" viewBox="0 0 80 63" fill="none" xmlns="http://www.w3.org/2000/svg">
<g clip-path="url(#clip0_1327_515)">
<path d="M79.5251 3.3917H0.474889C0.357495 3.39158 0.244945 3.34621 0.161935 3.26554C0.0789242 3.18487 0.0322326 3.07549 0.0321045 2.96141V0.430295C0.0322326 0.316212 0.0789242 0.206837 0.161935 0.126168C0.244945 0.0454991 0.357495 0.000124527 0.474889 0H79.5251C79.6424 0.000124527 79.755 0.0454991 79.838 0.126168C79.921 0.206837 79.9677 0.316212 79.9678 0.430295V2.96141C79.9677 3.07549 79.921 3.18487 79.838 3.26554C79.755 3.34621 79.6424 3.39158 79.5251 3.3917Z" fill="#E4E4E4"/>
<path d="M2.60179 2.18331C2.94898 2.18331 3.23043 1.9098 3.23043 1.5724C3.23043 1.235 2.94898 0.961487 2.60179 0.961487C2.2546 0.961487 1.97314 1.235 1.97314 1.5724C1.97314 1.9098 2.2546 2.18331 2.60179 2.18331Z" fill="white"/>
<path d="M4.9879 2.18331C5.33509 2.18331 5.61654 1.9098 5.61654 1.5724C5.61654 1.235 5.33509 0.961487 4.9879 0.961487C4.64071 0.961487 4.35925 1.235 4.35925 1.5724C4.35925 1.9098 4.64071 2.18331 4.9879 2.18331Z" fill="white"/>
<path d="M7.37413 2.18331C7.72132 2.18331 8.00277 1.9098 8.00277 1.5724C8.00277 1.235 7.72132 0.961487 7.37413 0.961487C7.02694 0.961487 6.74548 1.235 6.74548 1.5724C6.74548 1.9098 7.02694 2.18331 7.37413 2.18331Z" fill="white"/>
<path d="M78.9265 63H43.768C43.4833 62.9997 43.2105 62.8897 43.0092 62.6941C42.808 62.4986 42.6948 62.2334 42.6945 61.9568V37.8046C42.6948 37.528 42.808 37.2629 43.0092 37.0673C43.2105 36.8717 43.4833 36.7617 43.768 36.7614H78.9265C79.2111 36.7617 79.484 36.8717 79.6853 37.0673C79.8865 37.2629 79.9997 37.528 80 37.8046V61.9568C79.9997 62.2334 79.8865 62.4986 79.6852 62.6941C79.484 62.8897 79.2111 62.9997 78.9265 63Z" fill="#E6E6E6"/>
<path d="M77.4628 38.1837H45.2321C44.9473 38.184 44.6744 38.2941 44.473 38.4897C44.2717 38.6854 44.1584 38.9506 44.1581 39.2273V60.534C44.1585 60.8107 44.2717 61.0759 44.473 61.2716C44.6744 61.4672 44.9473 61.5773 45.2321 61.5776H77.4628C77.7474 61.5773 78.0203 61.4671 78.2215 61.2715C78.4227 61.0758 78.5358 60.8106 78.5359 60.534V39.2273C78.5358 38.9507 78.4227 38.6855 78.2215 38.4898C78.0203 38.2941 77.7474 38.184 77.4628 38.1837Z" fill="white"/>
<path d="M64.2846 48.3126C64.8195 46.0486 63.3644 43.7918 61.0346 43.272C58.7049 42.7523 56.3826 44.1663 55.8477 46.4303C55.3129 48.6944 56.7679 50.9512 59.0977 51.4709C61.4275 51.9907 63.7497 50.5767 64.2846 48.3126Z" fill="#B7B7B7"/>
<path d="M72.5141 57.617C72.3549 56.8861 71.9946 56.2109 71.4718 55.6633C70.9489 55.1157 70.2829 54.7162 69.5448 54.5073L69.5416 54.5056C69.4007 54.4382 69.2516 54.3885 69.0978 54.3577L63.8963 53.3234L62.8542 52.2368L58.4199 52.5118L57.957 53.7618L52.8634 55.9617L52.9478 55.9042C52.7296 55.9892 52.5173 56.0881 52.3124 56.2001L52.2866 56.2113C52.1398 56.2753 52.0034 56.3598 51.8818 56.4622C50.5864 57.3359 49.7306 58.7382 49.6989 60.3018L49.5645 61.5777H73.3791L72.5141 57.617Z" fill="#1278FB" fill-opacity="0.95"/>
<path d="M64.8029 45.1171C64.4486 44.0416 63.4119 43.1334 62.2502 43.1623C62.3407 42.894 62.1861 42.5932 61.9547 42.4224C61.7233 42.2517 61.4308 42.1834 61.1463 42.1258C60.5584 42.0067 59.9457 41.9158 59.3611 42.0499C58.7766 42.1841 58.2227 42.5916 58.0911 43.1611C57.5587 42.6761 56.5743 42.8103 56.1997 43.4188C56.007 43.732 55.9797 44.1528 56.188 44.4564C56.395 44.758 56.7871 44.8938 57.1597 44.9109C57.5325 44.928 57.9015 44.8467 58.2725 44.8089C59.1589 44.7184 60.095 44.892 60.8115 45.407C61.5281 45.922 61.9859 46.8051 61.8585 47.6622C62.1449 47.4843 62.5575 47.6079 62.7576 47.8749C62.9576 48.142 62.9734 48.5069 62.8805 48.8247C62.7876 49.1424 62.599 49.4243 62.413 49.7008C62.0705 50.21 61.728 50.7191 61.3856 51.2282L61.5259 51.3189C62.0425 51.5306 62.6014 51.1348 62.9775 50.7307C63.6117 50.0489 64.1226 49.2677 64.4885 48.4202C64.9377 47.3786 65.1572 46.1927 64.8029 45.1171Z" fill="#2F2E41"/>
<path d="M46.132 44.2975H1.36681C1.00444 44.2971 0.657021 44.157 0.400783 43.908C0.144544 43.659 0.000410179 43.3214 0 42.9693V12.2178C0.000408878 11.8656 0.144543 11.528 0.400781 11.279C0.65702 11.03 1.00444 10.8899 1.36681 10.8895H46.132C46.4944 10.8899 46.8418 11.03 47.0981 11.279C47.3543 11.528 47.4985 11.8656 47.4989 12.2178V42.9693C47.4985 43.3214 47.3543 43.659 47.0981 43.908C46.8418 44.157 46.4944 44.2971 46.132 44.2975Z" fill="#E6E6E6"/>
<path d="M44.2684 12.7004H3.23108C2.86856 12.7009 2.52102 12.841 2.26468 13.0902C2.00833 13.3393 1.86411 13.677 1.86365 14.0293V41.1577C1.86411 41.51 2.00833 41.8477 2.26467 42.0968C2.52101 42.346 2.86856 42.4861 3.23108 42.4866H44.2684C44.6309 42.4861 44.9783 42.3459 45.2344 42.0967C45.4906 41.8476 45.6346 41.5099 45.6348 41.1577V14.0293C45.6346 13.6771 45.4906 13.3394 45.2344 13.0903C44.9783 12.8411 44.6309 12.7009 44.2684 12.7004Z" fill="white"/>
<path d="M29.6544 25.4316L29.5787 25.5642C30.2524 23.9507 29.6398 21.9625 28.438 20.7458C27.2362 19.5292 25.5654 18.973 23.9203 18.7523C22.6991 18.5885 21.4314 18.5933 20.2702 19.028C18.5886 19.6575 17.3038 21.1149 16.2311 22.6309C15.7404 23.3243 15.258 24.1148 15.3069 24.9815C15.3523 25.7858 15.8435 26.4683 16.2458 27.1507C16.6482 27.8331 16.9842 28.6797 16.6954 29.4244C16.5234 29.8682 16.1597 30.1879 15.8646 30.5509C15.5696 30.914 15.3268 31.4047 15.4694 31.8602C15.5847 32.2287 15.9316 32.4711 16.2883 32.5519C16.645 32.6327 17.0151 32.5799 17.3763 32.5268L26.7535 31.15C27.3907 31.0565 27.9952 30.8146 28.5154 30.4449C29.0356 30.0753 29.4561 29.5889 29.741 29.0272C30.0259 28.4654 30.1669 27.8451 30.1518 27.219C30.1367 26.593 29.9661 25.9797 29.6544 25.4316Z" fill="#2F2E41"/>
<path d="M22.6794 31.0865C25.2115 31.0865 27.2641 29.0918 27.2641 26.6311C27.2641 24.1705 25.2115 22.1758 22.6794 22.1758C20.1474 22.1758 18.0947 24.1705 18.0947 26.6311C18.0947 29.0918 20.1474 31.0865 22.6794 31.0865Z" fill="#D0D0D0"/>
<path d="M34.1148 36.7171C33.8181 36.0853 33.3502 35.5438 32.761 35.1507C32.1719 34.7575 31.4838 34.5275 30.7705 34.4853L29.4928 34.4102L29.4959 34.4232L26.2477 32.5244C26.3276 32.6133 20.9643 32.7994 20.9643 32.7994L18.9743 34.4678L18.1397 34.5169C17.4264 34.5591 16.7383 34.7891 16.1492 35.1822C15.5601 35.5754 15.0921 36.1169 14.7954 36.7487L12.0853 42.5181H17.487L17.6123 41.994C17.7486 42.1554 17.8808 42.3196 18.0088 42.4865H36.8249L34.1148 36.7171Z" fill="#1278FB" fill-opacity="0.95"/>
<path d="M27.0281 22.4961C26.9098 21.8877 26.2712 21.6094 25.7241 21.4746C24.1372 21.0811 22.4865 20.993 20.8648 21.2152C19.6826 21.3791 18.4723 21.7403 17.6146 22.6371C16.9456 23.3365 16.5408 24.3384 16.5093 25.3728C16.4909 25.9757 16.6018 26.6031 16.9105 27.1108C17.2192 27.6186 17.7453 27.9868 18.2885 27.9739L18.3435 28.1598C20.6453 27.8482 22.7835 26.4563 24.1301 24.3931C23.8774 25.2701 23.3744 26.0598 22.6794 26.6707C24.2334 26.0664 25.5843 25.0547 26.5815 23.7482C26.8538 23.397 27.1181 22.959 27.0281 22.4961Z" fill="#2F2E41"/>
<path d="M77.1872 1.15193H74.4395C74.4127 1.15202 74.3862 1.14696 74.3614 1.13705C74.3367 1.12715 74.3142 1.11259 74.2952 1.09422C74.2762 1.07584 74.2612 1.05401 74.2509 1.02998C74.2406 1.00594 74.2354 0.980169 74.2354 0.954142C74.2354 0.928116 74.2406 0.902345 74.2509 0.878307C74.2612 0.85427 74.2762 0.832438 74.2952 0.814063C74.3142 0.795689 74.3367 0.781132 74.3614 0.771228C74.3862 0.761324 74.4127 0.756268 74.4395 0.756349H77.1872C77.2411 0.756511 77.2927 0.777423 77.3307 0.814498C77.3688 0.851574 77.3901 0.901791 77.3901 0.954142C77.3901 1.00649 77.3688 1.05671 77.3307 1.09378C77.2927 1.13086 77.2411 1.15177 77.1872 1.15193Z" fill="white"/>
<path d="M77.1872 1.89363H74.4395C74.4127 1.89371 74.3862 1.88866 74.3614 1.87875C74.3367 1.86885 74.3142 1.85429 74.2952 1.83592C74.2762 1.81754 74.2612 1.79571 74.2509 1.77167C74.2406 1.74764 74.2354 1.72187 74.2354 1.69584C74.2354 1.66982 74.2406 1.64404 74.2509 1.62001C74.2612 1.59597 74.2762 1.57414 74.2952 1.55576C74.3142 1.53739 74.3367 1.52283 74.3614 1.51293C74.3862 1.50302 74.4127 1.49797 74.4395 1.49805H77.1872C77.2411 1.49821 77.2927 1.51912 77.3307 1.5562C77.3688 1.59327 77.3901 1.64349 77.3901 1.69584C77.3901 1.74819 77.3688 1.79841 77.3307 1.83548C77.2927 1.87256 77.2411 1.89347 77.1872 1.89363Z" fill="white"/>
<path d="M77.1872 2.63533H74.4395C74.4127 2.63541 74.3862 2.63036 74.3614 2.62045C74.3367 2.61055 74.3142 2.59599 74.2952 2.57762C74.2762 2.55924 74.2612 2.53741 74.2509 2.51337C74.2406 2.48934 74.2354 2.46357 74.2354 2.43754C74.2354 2.41151 74.2406 2.38574 74.2509 2.36171C74.2612 2.33767 74.2762 2.31584 74.2952 2.29746C74.3142 2.27909 74.3367 2.26453 74.3614 2.25463C74.3862 2.24472 74.4127 2.23967 74.4395 2.23975H77.1872C77.2411 2.23991 77.2927 2.26082 77.3307 2.2979C77.3688 2.33497 77.3901 2.38519 77.3901 2.43754C77.3901 2.48989 77.3688 2.54011 77.3307 2.57718C77.2927 2.61426 77.2411 2.63517 77.1872 2.63533Z" fill="white"/>
</g>
<defs>
<clipPath id="clip0_1327_515">
<rect width="80" height="63" fill="white"/>
</clipPath>
</defs>
</svg>
