<svg width="96" height="70" viewBox="0 0 96 70" fill="none" xmlns="http://www.w3.org/2000/svg">
<g clip-path="url(#clip0_1327_536)">
<path d="M72.2053 2.70445C71.48 3.15075 70.3095 1.38546 70.0442 2.24894C69.7789 3.11241 70.4214 6.59649 70.7529 7.43209C70.9177 7.84742 71.1506 8.22729 71.3122 8.64408C71.4739 9.06088 71.5606 9.54011 71.4177 9.96504C71.169 10.7045 70.3483 11.0054 69.9414 11.6553C69.4674 12.4124 69.6588 13.432 69.8804 14.3172C70.0714 15.0801 70.2749 15.85 70.6425 16.5311C71.0101 17.2121 71.5643 17.8051 72.2568 18.0304C73.1386 18.3173 74.081 17.9764 74.931 17.5914C75.7482 17.2214 76.5567 16.8018 77.2518 16.2031C77.9469 15.6044 78.5268 14.8097 78.7698 13.8786C79.0746 12.7106 78.8199 11.4324 78.2922 10.3639C77.7645 9.29539 76.9839 8.40525 76.1829 7.56484C74.8339 6.14943 73.3983 4.833 71.889 3.6273L72.2053 2.70445Z" fill="#2F2E41"/>
<path d="M82.9916 62.6349L82.3068 69.6331L82.2757 69.9531L74.5289 69.92L74.488 69.5989L73.6678 63.1863L82.9916 62.6349Z" fill="#BAD1EE"/>
<path d="M71.147 69.5851C71.147 69.6907 71.146 69.7973 71.145 69.9051L63.1031 69.8709L63.0769 69.5499L62.5811 63.4626L70.8966 62.3586C70.8966 62.3586 71.1645 65.5873 71.147 69.5851Z" fill="#BAD1EE"/>
<path d="M70.2519 15.1013C71.5293 16.8634 73.7815 17.374 75.5991 16.3252C78.1936 14.828 81.7359 13.1122 82.362 14.4832C83.3699 16.6908 83.3699 18.8331 83.3699 18.8331L84.3779 44.5607C84.3779 44.5607 84.8819 54.9486 78.5821 54.0317C72.2823 53.1148 62.4546 56.978 62.4546 56.978L63.4584 45.5804L66.139 41.2832L67.2248 28.9546L65.3525 19.0362L67.6204 17.9325C67.6204 17.9325 67.8724 16.0009 68.6284 16.0009C69.3844 16.0009 69.5669 14.1454 70.2316 15.0731C70.2383 15.0824 70.245 15.0918 70.2519 15.1013Z" fill="white"/>
<path d="M83.9188 69.9605L82.2756 69.9531L74.5289 69.92L73.5207 69.9157L73.4623 69.5947L71.9038 60.9795L71.6602 69.5872L71.6515 69.9072L71.145 69.9051L63.1031 69.8709L62.5264 69.8677L62.5245 69.5477L62.4904 63.4637L62.4592 57.8297L62.4543 56.9775L62.4553 56.9764L64.8632 51.6315L65.5655 50.0721L65.7097 49.7521L67.1162 46.63L79.8434 44.7005L80.0382 44.6706L83.4961 44.1469L83.5214 45.6989L83.536 46.5799L83.5877 49.7521L83.5935 50.0721L83.5994 50.4379L83.913 69.6395L83.9188 69.9605Z" fill="#2F2E41"/>
<path d="M74.017 14.283C76.9235 14.283 79.2797 11.7029 79.2797 8.52021C79.2797 5.33752 76.9235 2.75745 74.017 2.75745C71.1106 2.75745 68.7544 5.33752 68.7544 8.52021C68.7544 11.7029 71.1106 14.283 74.017 14.283Z" fill="#BAD1EE"/>
<path d="M79.9495 17.5455C78.7212 19.4641 78.0931 21.8348 78.1928 24.1754C76.8001 23.4367 75.8602 21.8759 75.5403 20.218C75.2203 18.5601 75.4644 16.8193 75.9785 15.221C75.9836 15.205 75.9888 15.189 75.994 15.1731C76.7745 12.7741 76.0493 10.0928 74.164 8.60153C72.8924 7.59562 71.7895 6.33364 70.943 4.88707C70.4651 4.07041 70.0589 3.04597 70.4159 2.15831C70.7449 1.34037 71.5947 0.958079 72.3767 0.702282C74.1625 0.118187 76.0599 -0.214171 77.8927 0.155428C79.7256 0.525026 81.4901 1.67924 82.3563 3.48622C83.2226 5.29319 82.9957 7.75926 81.5896 9.09882C82.0331 9.25582 82.3468 9.77053 82.3092 10.2792C82.2715 10.7879 81.8861 11.2405 81.4254 11.3173C81.726 11.3056 81.9034 11.7391 81.7962 12.0469C81.689 12.3547 81.4126 12.5458 81.1488 12.7043C80.7732 12.9299 80.3567 13.1659 80.3551 13.7568C80.3545 13.9937 80.4316 14.2236 80.5577 14.4162C80.8632 14.8829 81.3564 15.093 81.8312 15.2903C80.827 15.6142 80.0262 16.597 79.8464 17.7264L79.9495 17.5455Z" fill="#2F2E41"/>
<path d="M57.5087 15.3161C57.3651 13.6662 58.0261 12.2476 58.985 12.1477C59.944 12.0478 60.8374 13.3042 60.9809 14.9548C61.0465 15.6132 60.9671 16.2793 60.7494 16.8973L61.2773 23.8965L58.2725 24.0977L58.0711 17.1764C57.7507 16.6144 57.5578 15.9765 57.5087 15.3161Z" fill="#BAD1EE"/>
<path d="M73.8791 18.6364C73.8791 18.6364 68.9701 15.4744 67.9595 15.9487C66.9488 16.423 62.0398 24.4862 62.0398 24.4862L61.5885 23.0147L58.1415 23.3795C58.1415 23.3795 56.1202 33.6562 60.596 32.7075C65.0718 31.7589 72.4353 22.9052 72.4353 22.9052L73.8791 18.6364Z" fill="white"/>
<path d="M28.3351 35.6263C28.3351 35.6263 31.1068 33.8469 31.8532 35.4968C32.5997 37.1468 39.4955 56.8299 39.4955 56.8299L35.0518 57.7774L28.3351 35.6263Z" fill="white"/>
<path d="M22.2897 23.8681L22.4204 24.0718C21.9333 24.3797 21.8615 25.1566 22.0899 25.7203C22.3183 26.284 22.7604 26.7018 23.1428 27.1547C23.5252 27.6075 23.8739 28.1684 23.8384 28.7842C23.7986 29.4767 23.283 30.0471 23.2112 30.7368C23.1073 31.741 23.9613 32.6221 23.9189 33.632C23.8869 34.4032 23.3453 35.0228 22.808 35.523C22.3875 35.9153 21.9298 36.3094 21.646 36.8153C21.5682 36.9546 21.5033 37.1033 21.4557 37.2625C21.2437 37.9806 21.4436 38.7632 21.7127 39.4576C21.9809 40.1521 22.3226 40.8304 22.4065 41.5789C22.4896 42.3273 22.2318 43.1913 21.6028 43.4983C22.8556 43.3808 24.0781 42.9024 25.1154 42.1246C25.2089 42.0545 25.2997 41.9825 25.3897 41.9086C26.8605 40.6959 27.8935 38.9441 28.8876 37.2369C28.9698 37.0967 29.0511 36.9555 29.1333 36.8153C29.354 36.4354 29.5754 36.0565 29.7969 35.6765C30.4285 34.5908 31.0679 33.489 31.4122 32.2592C31.7289 31.1252 31.7825 29.9267 31.9123 28.7491C31.9755 28.1722 32.0585 27.5971 32.0741 27.0163C32.0992 26.1229 31.9599 25.2257 31.6761 24.3873C31.3984 23.563 30.9814 22.7947 30.4441 22.141C29.8938 21.4712 29.2207 20.9264 28.4801 20.5342C27.7629 20.1543 26.9825 19.9184 26.1874 19.853C25.9209 19.8312 25.6553 19.8274 25.3897 19.8407C24.342 19.8881 23.3063 20.178 22.2993 20.5342C21.5587 20.9264 20.8855 21.4712 20.3353 22.141C19.798 22.7947 19.381 23.563 19.1033 24.3873C20.0688 23.8226 21.216 23.6284 22.2897 23.8681Z" fill="#2F2E41"/>
<path d="M29.7984 34.2325L24.8307 32.0992L24.7049 34.2325L20.35 34.9792L18.3044 45.1122L20.1552 51.4053L33.9869 51.832L33.4999 49.6987C33.4999 49.6987 35.7402 46.9255 34.3765 42.4456L34.2251 41.3055C33.8291 38.3245 32.1944 35.7125 29.7984 34.2325Z" fill="white"/>
<path d="M27.0335 32.0034C29.4704 32.0034 31.446 29.8402 31.446 27.1717C31.446 24.5032 29.4704 22.3399 27.0335 22.3399C24.5966 22.3399 22.6211 24.5032 22.6211 27.1717C22.6211 29.8402 24.5966 32.0034 27.0335 32.0034Z" fill="#B4B4B4"/>
<path d="M18.7053 27.0163C18.7208 27.5971 18.8039 28.1722 18.8671 28.7491C18.9968 29.9267 19.0505 31.1252 19.3671 32.2592C19.7115 33.489 20.3509 34.5908 20.9824 35.6765C21.2039 36.0564 21.4254 36.4354 21.646 36.8153C21.7282 36.9555 21.8096 37.0967 21.8917 37.2369C22.8858 38.9441 23.9189 40.6959 25.3897 41.9086C25.4797 41.9825 25.5705 42.0545 25.6639 42.1246C26.7013 42.9024 27.9238 43.3808 29.1766 43.4983C28.5476 43.1913 28.2898 42.3273 28.3728 41.5789C28.4567 40.8304 28.7985 40.1521 29.0667 39.4576C29.3358 38.7632 29.5356 37.9806 29.3237 37.2625C29.2761 37.1033 29.2112 36.9546 29.1333 36.8153C28.8495 36.3094 28.3919 35.9153 27.9714 35.5231C27.4341 35.0228 26.8925 34.4032 26.8605 33.632C26.8181 32.6221 26.2289 32.9603 26.1251 31.9561C26.0533 31.2664 25.2132 30.0906 25.1734 29.3981C25.1379 28.7823 25.4831 27.293 25.8655 26.8401C26.2479 26.3872 25.8967 25.0353 26.1251 24.4716C26.3535 23.9079 28.8461 24.3797 28.359 24.0718L28.4896 23.8681C29.5633 23.6284 30.7105 23.8226 31.6761 24.3873C31.8863 24.5095 32.087 24.6488 32.2774 24.806C32.7368 23.887 32.1917 22.7208 31.4503 22.0586C30.7244 21.4086 29.8298 21.0335 28.9421 20.7028C28.789 20.646 28.635 20.5891 28.4801 20.5342C27.473 20.178 26.4374 19.8881 25.3897 19.8407C25.1241 19.8274 24.8584 19.8312 24.592 19.853C23.7969 19.9184 23.0165 20.1543 22.2992 20.5342C21.5586 20.9264 20.8855 21.4712 20.3353 22.141C19.798 22.7947 19.381 23.563 19.1033 24.3873C18.8195 25.2257 18.6802 26.1229 18.7053 27.0163Z" fill="#2F2E41"/>
<path d="M95.7275 65.6417L89.5772 51.4907C89.1185 50.4347 88.1317 49.7521 87.0632 49.7521H9.37952C9.08435 49.7521 8.79703 49.8022 8.52621 49.8982C7.84147 50.1382 7.25898 50.663 6.91415 51.384L0.321661 65.1457C-0.134195 66.0961 -0.103993 67.2139 0.402516 68.1334C0.90805 69.0539 1.79543 69.6064 2.77633 69.6107L62.5265 69.8677L63.1031 69.8709L71.145 69.9051L71.6515 69.9072L73.5207 69.9157L74.5289 69.92L82.2757 69.9531L83.9189 69.9605L93.2027 70H93.2144C94.1729 70 95.0505 69.4709 95.5648 68.5846C96.0811 67.6939 96.1415 66.5932 95.7275 65.6417Z" fill="white"/>
<path d="M95.7275 65.6417L89.5772 51.4907C89.1185 50.4347 88.1317 49.7521 87.0632 49.7521H9.37952C9.08435 49.7521 8.79703 49.8022 8.52621 49.8982C7.84147 50.1382 7.25898 50.663 6.91415 51.384L0.321661 65.1457C-0.134195 66.0961 -0.103993 67.2139 0.402516 68.1334C0.90805 69.0539 1.79543 69.6064 2.77633 69.6107L62.5265 69.8677L63.1031 69.8709L71.145 69.9051L71.6515 69.9072L73.5207 69.9157L74.5289 69.92L82.2757 69.9531L83.9189 69.9605L93.2027 70H93.2144C94.1729 70 95.0505 69.4709 95.5648 68.5846C96.0811 67.6939 96.1415 66.5932 95.7275 65.6417ZM95.3184 68.4128C94.8577 69.2075 94.0726 69.68 93.2144 69.68H93.2037L83.9131 69.6395L82.3068 69.6331L74.488 69.5989L73.4623 69.5947L71.6603 69.5872L71.147 69.5851L63.0768 69.5499L62.5245 69.5477L2.77728 69.2907C1.89966 69.2864 1.10481 68.7926 0.652857 67.9691C0.199901 67.1457 0.172649 66.1452 0.580777 65.294L7.17325 51.5334C7.41091 51.0374 7.77326 50.6448 8.20674 50.3921C8.56031 50.1851 8.96164 50.0721 9.37952 50.0721H87.0632C88.0197 50.0721 88.9022 50.6832 89.3133 51.6283L95.4635 65.7783C95.8346 66.6316 95.7801 67.6161 95.3184 68.4128Z" fill="#3F3D56"/>
<path d="M27.6068 59.9917L42.3152 54.1252L34.961 50.8863L20.3013 55.0852L27.6068 59.9917Z" fill="#F2F2F2"/>
<path d="M50.0103 51.1387L48.3544 56.8985L67.7383 58.1785L66.0824 51.672L50.0103 51.1387Z" fill="#F2F2F2"/>
<path d="M27.1613 52.124C28.5242 52.272 29.5592 53.162 29.473 54.1117C29.3869 55.0615 28.2123 55.7111 26.849 55.5629C26.3037 55.5119 25.7774 55.3186 25.3143 54.9992L19.547 54.2922L19.9076 51.3357L25.5549 52.3465C26.0665 52.1329 26.6173 52.0566 27.1613 52.124Z" fill="#B4B4B4"/>
<path d="M21.3727 35.5658L20.35 34.9792C20.35 34.9792 18.7428 35.0325 17.6713 36.2058C16.5998 37.3791 7.93062 50.8187 7.93062 50.8187C7.93062 50.8187 5.78768 54.4453 11.145 54.9786C16.5024 55.5119 22.4442 55.5119 22.4442 55.5119L22.9312 51.1387L14.8465 50.1787L20.508 41.9656L21.3727 35.5658Z" fill="white"/>
<path d="M78.4071 49.9632C77.2508 50.9034 75.8705 51.0122 75.3241 50.2063C74.7778 49.4004 75.2724 47.9852 76.4292 47.0447C76.8866 46.6621 77.421 46.405 77.9878 46.295L82.933 42.3788L84.5618 44.9592L79.5137 48.5459C79.2535 49.1083 78.874 49.5943 78.4071 49.9632Z" fill="#BAD1EE"/>
<path d="M81.5226 18.0705C81.5226 18.0705 85.5118 18.2085 86.2678 21.2438C87.0237 24.2791 88.5357 30.7488 88.2837 39.7318C88.2837 39.7318 89.5437 45.5265 86.2678 45.2506L81.7319 47.4581L78.708 43.043L81.2279 39.7318L81.5226 18.0705Z" fill="white"/>
</g>
<defs>
<clipPath id="clip0_1327_536">
<rect width="96" height="70" fill="white"/>
</clipPath>
</defs>
</svg>
